<svg width="731" height="414" viewBox="0 0 731 414" fill="none" xmlns="http://www.w3.org/2000/svg">
<g filter="url(#filter0_d_229_64)">
<path d="M1 15C1 6.71574 7.71573 0 16 0H705C713.284 0 720 6.71573 720 15V386C720 394.284 713.284 401 705 401H16C7.71571 401 1 394.284 1 386V15Z" fill="#EEEEEE" fill-opacity="0.99" shape-rendering="crispEdges"/>
</g>
<rect x="1.00513" y="49" width="719" height="58" fill="#140101" fill-opacity="0.86"/>
<ellipse cx="612.005" cy="315.377" rx="30.9241" ry="29.8196" transform="rotate(4.6194 612.005 315.377)" fill="#8B8787"/>
<ellipse cx="653.837" cy="318.757" rx="30.9241" ry="29.8196" transform="rotate(4.6194 653.837 318.757)" fill="#D0CECE" fill-opacity="0.67"/>
<path d="M45.1761 338.956C44.5495 338.956 44.0026 338.916 43.5355 338.836C43.057 338.768 42.6469 338.671 42.3051 338.545L42.3051 335.11C42.6696 335.201 43.0627 335.281 43.4843 335.35C43.9058 335.418 44.3558 335.452 44.8344 335.452C45.461 335.452 46.0306 335.333 46.5433 335.093C47.056 334.854 47.4605 334.421 47.7567 333.794C48.0643 333.168 48.2181 332.285 48.2181 331.146L48.2181 307.015L52.3197 307.015L52.3197 331.009C52.3197 332.866 52.0235 334.375 51.431 335.538C50.8386 336.711 50.0069 337.571 48.9359 338.118C47.8649 338.676 46.6117 338.956 45.1761 338.956ZM75.1176 322.498C75.1176 324.07 74.9125 325.466 74.5023 326.685C74.0922 327.904 73.494 328.935 72.7079 329.778C71.9218 330.61 70.9761 331.248 69.871 331.692C68.7658 332.125 67.5183 332.342 66.1283 332.342C64.8295 332.342 63.6389 332.125 62.5565 331.692C61.4742 331.248 60.5342 330.61 59.7367 329.778C58.9506 328.935 58.341 327.904 57.9081 326.685C57.4751 325.466 57.2587 324.07 57.2587 322.498C57.2587 320.413 57.6176 318.647 58.3353 317.2C59.0645 315.742 60.1013 314.631 61.4457 313.868C62.7901 313.104 64.3908 312.723 66.2479 312.723C67.9911 312.723 69.5292 313.104 70.8622 313.868C72.1952 314.631 73.2377 315.742 73.9896 317.2C74.7416 318.659 75.1176 320.424 75.1176 322.498ZM61.3944 322.498C61.3944 323.877 61.5596 325.056 61.89 326.036C62.2318 327.015 62.7559 327.767 63.4623 328.292C64.1687 328.804 65.0801 329.061 66.1967 329.061C67.3132 329.061 68.2247 328.804 68.931 328.292C69.6374 327.767 70.1558 327.015 70.4862 326.036C70.8166 325.056 70.9818 323.877 70.9818 322.498C70.9818 321.119 70.8166 319.952 70.4862 318.995C70.1558 318.026 69.6374 317.291 68.931 316.79C68.2247 316.277 67.3075 316.021 66.1796 316.021C64.5162 316.021 63.3028 316.579 62.5394 317.696C61.7761 318.812 61.3944 320.413 61.3944 322.498ZM83.7479 305.408L83.7479 312.09C83.7479 312.785 83.7251 313.463 83.6796 314.124C83.6454 314.785 83.6055 315.298 83.5599 315.662L83.7821 315.662C84.1809 315.001 84.6708 314.46 85.2518 314.039C85.8329 313.606 86.4823 313.281 87.2001 313.064C87.9292 312.848 88.704 312.74 89.5243 312.74C90.9712 312.74 92.2017 312.985 93.2157 313.475C94.2297 313.953 95.0044 314.699 95.5399 315.713C96.0868 316.727 96.3602 318.043 96.3602 319.661L96.3602 332L92.3441 332L92.3441 320.413C92.3441 318.943 92.0422 317.844 91.4384 317.115C90.8345 316.374 89.9003 316.004 88.6356 316.004C87.4165 316.004 86.4481 316.26 85.7303 316.773C85.024 317.274 84.517 318.021 84.2094 319.012C83.9017 319.992 83.7479 321.188 83.7479 322.601L83.7479 332L79.7318 332L79.7318 305.408L83.7479 305.408ZM111.844 312.723C113.974 312.723 115.632 313.275 116.817 314.38C118.013 315.474 118.611 317.234 118.611 319.661L118.611 332L114.595 332L114.595 320.413C114.595 318.943 114.293 317.844 113.689 317.115C113.085 316.374 112.151 316.004 110.887 316.004C109.052 316.004 107.776 316.568 107.058 317.696C106.352 318.824 105.999 320.459 105.999 322.601L105.999 332L101.983 332L101.983 313.082L105.11 313.082L105.674 315.645L105.896 315.645C106.307 314.984 106.814 314.443 107.417 314.021C108.033 313.589 108.716 313.264 109.468 313.047C110.231 312.831 111.023 312.723 111.844 312.723ZM154.021 319.268C154.021 322.082 153.497 324.435 152.449 326.326C151.401 328.206 149.88 329.625 147.886 330.582C145.892 331.527 143.488 332 140.674 332L133.736 332L133.736 307.015L141.426 307.015C144.012 307.015 146.245 307.482 148.125 308.416C150.005 309.339 151.458 310.712 152.483 312.535C153.509 314.346 154.021 316.591 154.021 319.268ZM149.749 319.388C149.749 317.337 149.424 315.651 148.775 314.329C148.137 313.007 147.191 312.028 145.938 311.39C144.696 310.74 143.164 310.416 141.341 310.416L137.837 310.416L137.837 328.565L140.743 328.565C143.762 328.565 146.018 327.796 147.51 326.258C149.003 324.72 149.749 322.43 149.749 319.388ZM175.743 322.498C175.743 324.07 175.537 325.466 175.127 326.685C174.717 327.904 174.119 328.935 173.333 329.778C172.547 330.61 171.601 331.248 170.496 331.692C169.391 332.125 168.143 332.342 166.753 332.342C165.454 332.342 164.264 332.125 163.182 331.692C162.099 331.248 161.159 330.61 160.362 329.778C159.576 328.935 158.966 327.904 158.533 326.685C158.1 325.466 157.884 324.07 157.884 322.498C157.884 320.413 158.243 318.647 158.96 317.2C159.689 315.742 160.726 314.631 162.071 313.868C163.415 313.104 165.016 312.723 166.873 312.723C168.616 312.723 170.154 313.104 171.487 313.868C172.82 314.631 173.863 315.742 174.615 317.2C175.367 318.659 175.743 320.424 175.743 322.498ZM162.019 322.498C162.019 323.877 162.185 325.056 162.515 326.036C162.857 327.015 163.381 327.767 164.087 328.292C164.794 328.804 165.705 329.061 166.822 329.061C167.938 329.061 168.85 328.804 169.556 328.292C170.262 327.767 170.781 327.015 171.111 326.036C171.442 325.056 171.607 323.877 171.607 322.498C171.607 321.119 171.442 319.952 171.111 318.995C170.781 318.026 170.262 317.291 169.556 316.79C168.85 316.277 167.932 316.021 166.805 316.021C165.141 316.021 163.928 316.579 163.164 317.696C162.401 318.812 162.019 320.413 162.019 322.498ZM187.893 312.723C189.58 312.723 191.027 313.07 192.234 313.765C193.442 314.46 194.37 315.446 195.02 316.722C195.669 317.998 195.994 319.524 195.994 321.302L195.994 323.455L183.365 323.455C183.41 325.289 183.9 326.702 184.834 327.693C185.78 328.685 187.102 329.18 188.799 329.18C190.007 329.18 191.089 329.066 192.046 328.838C193.015 328.599 194.012 328.252 195.037 327.796L195.037 331.06C194.091 331.504 193.129 331.829 192.149 332.034C191.169 332.239 189.995 332.342 188.628 332.342C186.771 332.342 185.136 331.983 183.724 331.265C182.322 330.536 181.223 329.454 180.425 328.018C179.639 326.583 179.246 324.799 179.246 322.669C179.246 320.55 179.605 318.75 180.323 317.269C181.04 315.787 182.049 314.66 183.348 313.885C184.646 313.11 186.162 312.723 187.893 312.723ZM187.893 315.748C186.629 315.748 185.603 316.158 184.817 316.978C184.043 317.798 183.587 319 183.45 320.584L192.063 320.584C192.052 319.638 191.892 318.801 191.585 318.072C191.289 317.343 190.833 316.773 190.218 316.363C189.614 315.953 188.839 315.748 187.893 315.748Z" fill="#170202"/>
<defs>
<filter id="filter0_d_229_64" x="0" y="0" width="731" height="414" filterUnits="userSpaceOnUse" color-interpolation-filters="sRGB">
<feFlood flood-opacity="0" result="BackgroundImageFix"/>
<feColorMatrix in="SourceAlpha" type="matrix" values="0 0 0 0 0 0 0 0 0 0 0 0 0 0 0 0 0 0 127 0" result="hardAlpha"/>
<feOffset dx="5" dy="7"/>
<feGaussianBlur stdDeviation="3"/>
<feComposite in2="hardAlpha" operator="out"/>
<feColorMatrix type="matrix" values="0 0 0 0 0 0 0 0 0 0 0 0 0 0 0 0 0 0 0.19 0"/>
<feBlend mode="normal" in2="BackgroundImageFix" result="effect1_dropShadow_229_64"/>
<feBlend mode="normal" in="SourceGraphic" in2="effect1_dropShadow_229_64" result="shape"/>
</filter>
</defs>
</svg>
