<svg width="277" height="214" viewBox="0 0 277 214" fill="none" xmlns="http://www.w3.org/2000/svg">
<g filter="url(#filter0_d_142_6)">
<rect x="268.523" y="132.593" width="233.491" height="136.907" rx="6" transform="rotate(162.58 268.523 132.593)" fill="#EEEEEE" fill-opacity="0.64" shape-rendering="crispEdges"/>
</g>
<path d="M53.3076 158.42C53.1016 158.481 52.9179 158.521 52.7566 158.541C52.5926 158.565 52.4483 158.573 52.3238 158.565L51.9898 157.435C52.1186 157.43 52.2555 157.418 52.4008 157.399C52.546 157.381 52.6973 157.348 52.8547 157.302C53.0607 157.241 53.2363 157.146 53.3817 157.018C53.527 156.889 53.6179 156.707 53.6543 156.473C53.6946 156.237 53.6593 155.931 53.5485 155.557L51.2027 147.623L52.5512 147.224L54.8838 155.113C55.0643 155.724 55.1137 156.249 55.0319 156.689C54.9512 157.132 54.7613 157.496 54.4624 157.78C54.1645 158.067 53.7796 158.281 53.3076 158.42ZM61.552 150.099C61.7049 150.616 61.7731 151.094 61.7568 151.535C61.7404 151.976 61.644 152.373 61.4675 152.727C61.2899 153.076 61.041 153.378 60.7208 153.632C60.3996 153.881 60.0104 154.074 59.5534 154.209C59.1264 154.335 58.7139 154.38 58.316 154.343C57.9169 154.302 57.5458 154.183 57.2028 153.987C56.8623 153.787 56.5617 153.507 56.3008 153.148C56.04 152.79 55.8331 152.352 55.6803 151.835C55.4776 151.149 55.4239 150.534 55.5192 149.988C55.6172 149.438 55.8501 148.972 56.2179 148.59C56.5857 148.208 57.0749 147.927 57.6855 147.747C58.2586 147.577 58.8014 147.553 59.3139 147.675C59.8264 147.796 60.2771 148.06 60.6661 148.466C61.0552 148.873 61.3504 149.417 61.552 150.099ZM57.04 151.433C57.1741 151.886 57.343 152.258 57.5469 152.548C57.7545 152.837 57.9999 153.033 58.2831 153.136C58.5652 153.236 58.8898 153.232 59.2569 153.124C59.624 153.015 59.8988 152.842 60.0812 152.605C60.2625 152.364 60.3598 152.066 60.3732 151.712C60.3866 151.358 60.3263 150.954 60.1923 150.501C60.0582 150.047 59.8904 149.679 59.6887 149.397C59.4859 149.111 59.2441 148.919 58.9631 148.823C58.681 148.723 58.3545 148.728 57.9837 148.838C57.4368 149 57.0921 149.301 56.9497 149.742C56.8072 150.184 56.8374 150.747 57.04 151.433ZM62.7282 143.641L63.3778 145.838C63.4454 146.066 63.5038 146.291 63.553 146.513C63.606 146.734 63.6428 146.906 63.6632 147.03L63.7363 147.009C63.8031 146.753 63.9116 146.527 64.0617 146.332C64.2106 146.133 64.3926 145.963 64.6075 145.822C64.8262 145.68 65.0704 145.569 65.3401 145.49C65.8158 145.349 66.2442 145.31 66.6252 145.372C67.0051 145.431 67.3324 145.601 67.607 145.883C67.8854 146.163 68.1033 146.569 68.2605 147.101L69.4601 151.158L68.1396 151.548L67.0132 147.738C66.8703 147.255 66.6642 146.923 66.3947 146.742C66.1242 146.557 65.7811 146.526 65.3653 146.649C64.9644 146.768 64.671 146.946 64.4848 147.185C64.3013 147.418 64.2071 147.713 64.2024 148.068C64.1965 148.421 64.2622 148.829 64.3995 149.293L65.3133 152.384L63.9929 152.774L61.4077 144.031L62.7282 143.641ZM72.6767 143.314C73.3772 143.107 73.976 143.128 74.473 143.376C74.9726 143.619 75.3404 144.14 75.5763 144.938L76.7759 148.994L75.4554 149.385L74.329 145.575C74.1861 145.092 73.98 144.76 73.7106 144.579C73.44 144.394 73.0969 144.363 72.6811 144.486C72.078 144.664 71.7133 144.974 71.5869 145.415C71.4643 145.854 71.5071 146.426 71.7154 147.13L72.6291 150.221L71.3087 150.611L69.4695 144.391L70.4978 144.087L70.9324 144.875L71.0055 144.853C71.0761 144.596 71.1902 144.369 71.3477 144.172C71.5079 143.969 71.7011 143.796 71.9273 143.652C72.1572 143.507 72.407 143.394 72.6767 143.314ZM87.1805 141.366C87.4541 142.291 87.5105 143.116 87.3497 143.839C87.1878 144.559 86.8257 145.174 86.2632 145.682C85.6995 146.187 84.9551 146.576 84.0299 146.85L81.7486 147.524L79.3197 139.309L81.8482 138.562C82.6985 138.31 83.4781 138.247 84.187 138.371C84.8948 138.492 85.5059 138.802 86.0202 139.302C86.5335 139.798 86.9202 140.486 87.1805 141.366ZM85.7874 141.821C85.588 141.146 85.3174 140.624 84.9754 140.252C84.6371 139.88 84.2309 139.649 83.7569 139.562C83.2854 139.469 82.75 139.511 82.1507 139.688L80.9988 140.029L82.7632 145.996L83.7184 145.714C84.7111 145.42 85.378 144.948 85.7192 144.297C86.0604 143.646 86.0831 142.821 85.7874 141.821ZM94.6361 140.316C94.789 140.833 94.8572 141.312 94.8409 141.753C94.8245 142.194 94.7281 142.591 94.5516 142.944C94.374 143.294 94.1251 143.596 93.805 143.849C93.4837 144.099 93.0946 144.292 92.6375 144.427C92.2105 144.553 91.798 144.598 91.4001 144.56C91.001 144.52 90.6299 144.401 90.2869 144.205C89.9464 144.005 89.6458 143.725 89.3849 143.366C89.1241 143.007 88.9172 142.569 88.7644 142.053C88.5617 141.367 88.508 140.752 88.6033 140.206C88.7013 139.656 88.9342 139.19 89.302 138.808C89.6698 138.426 90.159 138.145 90.7696 137.965C91.3427 137.795 91.8855 137.771 92.398 137.893C92.9105 138.014 93.3613 138.278 93.7503 138.684C94.1393 139.091 94.4346 139.635 94.6361 140.316ZM90.1242 141.65C90.2582 142.104 90.4271 142.475 90.631 142.765C90.8386 143.054 91.0841 143.251 91.3672 143.354C91.6493 143.454 91.9739 143.45 92.341 143.341C92.7081 143.233 92.9829 143.06 93.1653 142.823C93.3466 142.582 93.4439 142.284 93.4573 141.93C93.4707 141.575 93.4104 141.172 93.2764 140.718C93.1423 140.265 92.9745 139.897 92.7728 139.615C92.57 139.328 92.3282 139.137 92.0472 139.041C91.7651 138.941 91.4386 138.946 91.0678 139.056C90.5209 139.217 90.1762 139.519 90.0338 139.96C89.8913 140.402 89.9215 140.965 90.1242 141.65ZM97.6809 135.921C98.2353 135.757 98.7448 135.731 99.2094 135.842C99.674 135.953 100.075 136.187 100.413 136.543C100.75 136.9 101.005 137.37 101.178 137.954L101.388 138.662L97.2352 139.89C97.4285 140.489 97.7269 140.906 98.1305 141.141C98.5377 141.375 99.0204 141.409 99.5786 141.244C99.9756 141.127 100.32 140.984 100.613 140.816C100.908 140.643 101.202 140.432 101.495 140.183L101.812 141.256C101.545 141.494 101.26 141.694 100.957 141.857C100.655 142.019 100.279 142.167 99.8297 142.3C99.2192 142.481 98.6467 142.522 98.1125 142.423C97.5808 142.32 97.1141 142.071 96.7123 141.676C96.3143 141.281 96.0117 140.732 95.8046 140.032C95.5986 139.335 95.5416 138.708 95.6336 138.152C95.7256 137.595 95.9475 137.126 96.2992 136.745C96.6509 136.364 97.1115 136.089 97.6809 135.921ZM97.9749 136.916C97.5591 137.039 97.2619 137.273 97.0831 137.619C96.9082 137.964 96.8752 138.404 96.9842 138.938L99.8161 138.1C99.7204 137.791 99.5866 137.531 99.4146 137.321C99.2463 137.11 99.0411 136.967 98.7989 136.892C98.5605 136.816 98.2858 136.824 97.9749 136.916Z" fill="#170202"/>
<ellipse cx="226.454" cy="126.352" rx="11.4526" ry="11.0436" transform="rotate(-17.4121 226.454 126.352)" fill="#8B8787"/>
<ellipse cx="241.285" cy="121.701" rx="11.4526" ry="11.0436" transform="rotate(-17.4121 241.285 121.701)" fill="#D0CECE" fill-opacity="0.67"/>
<rect x="11" y="91.3906" width="233.238" height="28.281" transform="rotate(-18.3403 11 91.3906)" fill="#140101" fill-opacity="0.86"/>
<defs>
<filter id="filter0_d_142_6" x="0.273758" y="0.48484" width="276.73" height="213.489" filterUnits="userSpaceOnUse" color-interpolation-filters="sRGB">
<feFlood flood-opacity="0" result="BackgroundImageFix"/>
<feColorMatrix in="SourceAlpha" type="matrix" values="0 0 0 0 0 0 0 0 0 0 0 0 0 0 0 0 0 0 127 0" result="hardAlpha"/>
<feOffset dx="2" dy="5"/>
<feGaussianBlur stdDeviation="4"/>
<feComposite in2="hardAlpha" operator="out"/>
<feColorMatrix type="matrix" values="0 0 0 0 0 0 0 0 0 0 0 0 0 0 0 0 0 0 0.25 0"/>
<feBlend mode="normal" in2="BackgroundImageFix" result="effect1_dropShadow_142_6"/>
<feBlend mode="normal" in="SourceGraphic" in2="effect1_dropShadow_142_6" result="shape"/>
</filter>
</defs>
</svg>
