<svg width="349" height="350" viewBox="0 0 349 350" fill="none" xmlns="http://www.w3.org/2000/svg">
<g clip-path="url(#clip0_124_31)">
<path d="M286.18 32.2198C246.973 32.2198 246.911 88.1288 286.18 88.1288C325.45 88.1288 325.47 32.2198 286.18 32.2198Z" fill="#EBEBEB"/>
<path d="M310.038 65.4138C307.944 75.0318 300 83.3758 286.194 83.3758C253.611 83.3758 253.66 36.9728 286.194 36.9728C286.41 36.9728 286.62 36.9728 286.836 36.9728C256.215 37.5328 256.368 81.4788 287.436 81.4788C300.14 81.4928 307.664 74.1708 310.038 65.4138Z" fill="#DBDBDB"/>
<path d="M286.431 43.0908C286.688 43.0831 286.939 43.1758 287.129 43.3496C287.319 43.5233 287.434 43.7644 287.45 44.0218V45.5828C290.172 45.7638 292.789 46.7072 295.003 48.3058C295.38 48.5788 295.596 48.8098 295.596 49.2018C295.576 49.4767 295.45 49.7328 295.243 49.9148C295.037 50.0969 294.768 50.1902 294.493 50.1748C294.212 50.184 293.938 50.0865 293.725 49.9018C291.878 48.4882 289.678 47.6137 287.367 47.3748V58.2668C293.816 59.5128 296.531 61.7668 296.531 65.5468C296.531 69.6768 292.755 72.5888 287.457 72.7498V75.7808C287.436 76.0364 287.32 76.2746 287.132 76.4483C286.944 76.6219 286.697 76.7183 286.442 76.7183C286.186 76.7183 285.94 76.6219 285.752 76.4483C285.564 76.2746 285.447 76.0364 285.426 75.7808V72.7078C281.928 72.483 278.588 71.1634 275.878 68.9348C275.738 68.8474 275.623 68.7269 275.541 68.5841C275.46 68.4412 275.415 68.2804 275.41 68.1158C275.434 67.8503 275.556 67.6034 275.753 67.4235C275.949 67.2435 276.205 67.1435 276.471 67.1428C276.752 67.1336 277.026 67.2311 277.239 67.4158C279.535 69.4548 282.426 70.697 285.482 70.9578V59.8628C279.116 58.5818 276.485 56.4398 276.485 52.5478C276.485 48.6558 280.219 45.6178 285.398 45.5058V44.0218C285.413 43.7612 285.53 43.5169 285.723 43.3424C285.917 43.1679 286.171 43.0775 286.431 43.0908ZM285.482 57.8818V47.2558C281.364 47.3328 278.649 49.5938 278.649 52.3938C278.67 55.0398 280.031 56.6708 285.482 57.8818ZM287.346 60.2548V70.9998C291.59 70.9158 294.326 68.6618 294.326 65.7008C294.368 63.0198 292.881 61.3818 287.367 60.2548H287.346Z" fill="#DBDBDB"/>
<path d="M282.523 162.007C256.131 166.76 263.104 205.967 289.537 201.207C315.971 196.447 308.963 157.247 282.523 162.007Z" fill="#DBDBDB"/>
<path d="M285 161.559C259.872 166.088 266.852 205.302 292.015 200.759C317.178 196.216 310.198 157.03 285 161.559Z" fill="#EBEBEB"/>
<path d="M304.461 182.083C304.328 189.083 300.273 195.838 291.415 197.434C270.51 201.193 264.724 168.65 285.594 164.898L286.006 164.828C266.462 168.762 272.046 199.555 291.973 195.971C300.14 194.508 304.028 188.474 304.461 182.083Z" fill="#DBDBDB"/>
<path d="M290.026 169.14C290.197 169.169 290.352 169.261 290.459 169.398C290.566 169.536 290.618 169.708 290.605 169.882L290.473 170.981C292.242 171.328 293.867 172.201 295.135 173.487C295.244 173.566 295.33 173.673 295.385 173.795C295.44 173.918 295.462 174.053 295.449 174.187C295.437 174.279 295.407 174.368 295.361 174.449C295.314 174.529 295.252 174.599 295.178 174.655C295.104 174.711 295.019 174.752 294.929 174.775C294.839 174.798 294.746 174.803 294.654 174.789C294.562 174.78 294.473 174.754 294.391 174.71C294.31 174.667 294.238 174.608 294.179 174.537C293.127 173.41 291.768 172.619 290.27 172.262L289.37 179.962C293.439 181.362 295.01 183.119 294.696 185.814C294.354 188.733 291.666 190.511 288.218 190.217L287.967 192.366C287.938 192.536 287.847 192.69 287.712 192.797C287.576 192.905 287.406 192.958 287.234 192.947C287.061 192.919 286.905 192.828 286.797 192.69C286.688 192.553 286.635 192.38 286.648 192.205L286.906 190.035C284.628 189.588 282.564 188.391 281.043 186.633C280.956 186.558 280.888 186.462 280.847 186.355C280.806 186.247 280.791 186.131 280.805 186.017C280.83 185.836 280.924 185.672 281.067 185.559C281.211 185.447 281.392 185.395 281.573 185.415C281.758 185.43 281.928 185.518 282.048 185.66C283.327 187.257 285.113 188.366 287.108 188.803L288.03 180.949C284.016 179.549 282.488 177.841 282.816 175.09C283.144 172.339 285.803 170.47 289.16 170.785L289.286 169.735C289.312 169.56 289.403 169.402 289.54 169.292C289.677 169.182 289.851 169.127 290.026 169.14ZM288.19 179.535L289.077 172.017C286.403 171.758 284.456 173.144 284.226 175.132C284.009 177.001 284.784 178.261 288.19 179.535ZM289.202 181.355L288.309 188.971C291.066 189.237 293.034 187.851 293.279 185.758C293.502 183.847 292.678 182.573 289.202 181.355Z" fill="#DBDBDB"/>
<path d="M174.5 310.974C251.202 310.974 313.381 302.443 313.381 291.92C313.381 281.397 251.202 272.866 174.5 272.866C97.7981 272.866 35.619 281.397 35.619 291.92C35.619 302.443 97.7981 310.974 174.5 310.974Z" fill="#EBEBEB"/>
<path d="M160.973 299.788C159.472 300.292 116.622 300.166 114.989 299.123C114.374 298.738 114.025 292.473 113.823 284.899C113.774 283.261 113.739 281.574 113.718 279.852C113.718 277.822 113.655 275.764 113.641 273.762C113.593 264.788 113.718 256.885 113.718 256.885H141.638V273.762V279.852L141.492 284.899C141.492 284.899 157.874 292.305 159.542 293.642C161.21 294.979 162.467 299.298 160.973 299.788Z" fill="#D3766A"/>
<path d="M160.973 299.788C159.472 300.292 116.622 300.166 114.989 299.123C114.374 298.738 114.025 292.473 113.823 284.899C113.774 283.261 113.739 281.574 113.718 279.852C113.718 277.822 113.655 275.764 113.641 273.762H141.596V279.852L141.45 284.899C141.45 284.899 157.832 292.305 159.5 293.642C161.168 294.979 162.467 299.298 160.973 299.788Z" fill="white"/>
<path d="M161.105 299.858C160.128 300.18 141.875 300.243 128.586 299.963C125.507 299.9 122.694 299.816 120.426 299.718C117.299 299.571 115.205 299.403 114.842 299.186C114.088 298.696 113.725 289.505 113.558 279.81H141.589L141.443 284.878C141.443 284.878 157.922 292.326 159.591 293.67C161.259 295.014 162.634 299.347 161.105 299.858Z" fill="#4285F4"/>
<path d="M160.491 298.122C153.267 297.926 124.118 297.807 116.957 298.164C116.901 298.164 116.901 298.206 116.957 298.206C124.111 298.563 153.253 298.444 160.491 298.241C160.645 298.241 160.645 298.129 160.491 298.122Z" fill="#263238"/>
<path d="M142.49 283.268C139.649 282.729 136.208 283.156 133.995 285.186C133.911 285.263 133.995 285.382 134.114 285.354C136.836 284.479 139.644 283.902 142.49 283.632C142.538 283.632 142.584 283.613 142.618 283.579C142.652 283.544 142.671 283.498 142.671 283.45C142.671 283.402 142.652 283.355 142.618 283.321C142.584 283.287 142.538 283.268 142.49 283.268Z" fill="#263238"/>
<path d="M144.542 284.514C141.701 283.975 138.218 284.402 136.04 286.432C135.956 286.509 136.04 286.628 136.166 286.6C138.888 285.725 141.696 285.147 144.542 284.878C144.59 284.878 144.636 284.859 144.67 284.825C144.704 284.79 144.723 284.744 144.723 284.696C144.723 284.648 144.704 284.601 144.67 284.567C144.636 284.533 144.59 284.514 144.542 284.514Z" fill="#263238"/>
<path d="M146.58 285.76C143.739 285.221 140.298 285.648 138.085 287.678C138.002 287.755 138.085 287.874 138.204 287.846C140.926 286.971 143.734 286.394 146.58 286.124C146.628 286.124 146.674 286.105 146.708 286.071C146.742 286.036 146.762 285.99 146.762 285.942C146.762 285.894 146.742 285.847 146.708 285.813C146.674 285.779 146.628 285.76 146.58 285.76Z" fill="#263238"/>
<path d="M148.674 287.006C145.833 286.467 142.35 286.894 140.172 288.924C140.089 289.001 140.172 289.12 140.298 289.092C143.02 288.217 145.828 287.639 148.674 287.37C148.722 287.37 148.768 287.351 148.802 287.316C148.836 287.282 148.856 287.236 148.856 287.188C148.856 287.14 148.836 287.093 148.802 287.059C148.768 287.025 148.722 287.006 148.674 287.006Z" fill="#263238"/>
<path d="M147.76 276.695C146.65 275.148 144.563 275.834 143.376 276.835C141.365 278.582 139.848 280.83 138.979 283.352C138.979 283.408 138.979 283.443 139.049 283.45C139.049 283.667 139.251 283.898 139.488 283.807C141.841 282.946 144.458 282.309 146.468 280.748C147.655 279.838 148.814 278.158 147.76 276.695ZM142.79 281.77C141.638 282.218 140.48 282.617 139.356 283.114C140.174 281.819 141.057 280.567 142.001 279.362C142.471 278.787 142.977 278.242 143.516 277.731C144.36 276.968 147.704 275.33 147.208 278.431C146.922 280.181 144.151 281.224 142.79 281.77Z" fill="#263238"/>
<path d="M131.755 282.582C134.1 283.59 136.794 283.548 139.279 283.8C139.335 283.8 139.39 283.787 139.44 283.762C139.49 283.737 139.533 283.701 139.567 283.656C139.6 283.611 139.622 283.558 139.632 283.503C139.641 283.448 139.637 283.391 139.621 283.338C139.633 283.336 139.644 283.33 139.653 283.323C139.662 283.315 139.669 283.305 139.673 283.294C139.678 283.282 139.679 283.27 139.677 283.258C139.675 283.246 139.67 283.235 139.663 283.226C138.193 281.003 136.166 279.207 133.786 278.018C132.39 277.318 130.198 277.206 129.5 278.977C128.802 280.748 130.393 281.994 131.755 282.582ZM130.477 280.545C129.207 277.647 132.864 278.389 133.876 278.921C134.524 279.277 135.147 279.677 135.74 280.118C136.996 281.014 138.092 282.078 139.23 283.086C138.016 282.89 136.794 282.799 135.566 282.645C134.128 282.463 131.182 282.148 130.477 280.545Z" fill="#263238"/>
<path d="M142.511 265.348C141.701 265.243 140.829 265.278 140.012 265.25C139.084 265.215 138.162 265.208 137.22 265.173C135.433 265.103 133.653 265.061 131.873 265.033C128.281 264.967 124.688 264.993 121.096 265.11C120.105 265.11 119.114 265.173 118.13 265.215C117.145 265.257 116.036 265.348 114.968 265.341C114.955 265.341 114.942 265.346 114.933 265.355C114.924 265.364 114.919 265.377 114.919 265.39C114.919 265.403 114.924 265.415 114.933 265.424C114.942 265.434 114.955 265.439 114.968 265.439C116.782 265.439 118.611 265.593 120.419 265.663C122.227 265.733 123.979 265.754 125.766 265.782C129.353 265.831 132.955 265.782 136.543 265.67C137.527 265.628 138.518 265.614 139.502 265.586C140.033 265.586 140.556 265.537 141.087 265.523C141.617 265.509 142.022 265.523 142.483 265.474C142.491 265.476 142.5 265.476 142.508 265.474C142.516 265.473 142.524 265.47 142.531 265.465C142.538 265.461 142.545 265.455 142.549 265.448C142.554 265.441 142.558 265.433 142.56 265.425C142.561 265.417 142.562 265.408 142.56 265.4C142.559 265.391 142.556 265.383 142.551 265.376C142.546 265.369 142.541 265.363 142.534 265.358C142.527 265.353 142.519 265.35 142.511 265.348Z" fill="#263238"/>
<path d="M83.7042 295.301C82.1476 295.014 44.6162 274.301 43.6739 272.6C43.3109 271.963 46.0052 266.3 49.4533 259.559L62.122 234.583L87.7805 248.646L79.572 262.709L76.2076 268.484L73.6739 272.838C73.6739 272.838 84.5069 287.223 85.3375 289.19C86.1681 291.157 85.2537 295.581 83.7042 295.301Z" fill="#D3766A"/>
<path d="M83.7042 295.301C82.1476 295.014 44.6162 274.301 43.6739 272.6C43.3109 271.963 46.0052 266.3 49.4533 259.559C50.1932 258.096 53.404 251.397 54.4929 249.626C61.8428 253.609 72.9899 259.216 79.6209 262.709L76.2565 268.484L73.7228 272.838C73.7228 272.838 84.5557 287.223 85.3863 289.19C86.217 291.157 85.2537 295.581 83.7042 295.301Z" fill="white"/>
<path d="M83.76 295.413C82.2035 295.126 44.4487 274.301 43.5064 272.593C43.0736 271.802 47.1569 263.563 51.645 254.967L76.2426 268.449L73.6949 272.831C73.6949 272.831 84.5906 287.286 85.4213 289.274C86.2519 291.262 85.3515 295.7 83.76 295.413Z" fill="#4285F4"/>
<path d="M84.0811 293.6C77.834 289.953 52.3151 275.834 45.8656 272.698C45.8098 272.698 45.7958 272.698 45.8656 272.74C51.9731 276.492 77.6107 290.408 84.0462 293.705C84.1579 293.775 84.2137 293.677 84.0811 293.6Z" fill="#263238"/>
<path d="M75.384 271.914C73.1434 270.073 69.8908 268.771 67.008 269.506C66.8963 269.506 66.9382 269.688 67.008 269.709C69.8099 270.251 72.5455 271.093 75.1676 272.222C75.2084 272.251 75.2588 272.262 75.3079 272.253C75.357 272.245 75.4007 272.217 75.4294 272.176C75.4581 272.135 75.4694 272.085 75.4609 272.036C75.4524 271.986 75.4248 271.943 75.384 271.914Z" fill="#263238"/>
<path d="M76.5915 273.993C74.3579 272.152 71.0983 270.85 68.2155 271.585C68.1039 271.585 68.1457 271.767 68.2155 271.788C71.0194 272.331 73.7572 273.173 76.3821 274.301C76.4023 274.315 76.425 274.324 76.4489 274.329C76.4728 274.334 76.4974 274.334 76.5214 274.33C76.5454 274.325 76.5682 274.316 76.5886 274.303C76.6091 274.289 76.6267 274.272 76.6404 274.252C76.6542 274.232 76.6638 274.209 76.6688 274.185C76.6738 274.161 76.674 274.136 76.6695 274.112C76.6649 274.088 76.6557 274.065 76.6423 274.045C76.629 274.024 76.6117 274.007 76.5915 273.993Z" fill="#263238"/>
<path d="M77.7921 276.065C75.5585 274.231 72.2988 272.929 69.4161 273.657C69.3044 273.657 69.3463 273.846 69.4161 273.867C72.2199 274.41 74.9577 275.252 77.5827 276.38C77.6244 276.408 77.6753 276.418 77.7244 276.408C77.7735 276.398 77.8167 276.369 77.8445 276.327C77.8722 276.286 77.8823 276.234 77.8725 276.185C77.8627 276.136 77.8338 276.093 77.7921 276.065Z" fill="#263238"/>
<path d="M78.9927 278.144C76.7591 276.303 73.4994 275.008 70.6167 275.736C70.505 275.736 70.5469 275.925 70.6167 275.946C73.4215 276.485 76.1598 277.327 78.7833 278.459C78.8249 278.487 78.8759 278.497 78.925 278.487C78.9741 278.477 79.0173 278.448 79.045 278.406C79.0728 278.365 79.0829 278.313 79.0731 278.264C79.0632 278.215 79.0343 278.172 78.9927 278.144Z" fill="#263238"/>
<path d="M83.1597 268.673C82.9224 266.783 80.7656 266.384 79.244 266.685C76.6425 267.252 74.2354 268.495 72.264 270.29C72.2151 270.332 72.264 270.381 72.264 270.416C72.2348 270.463 72.2175 270.517 72.2134 270.573C72.2093 270.629 72.2186 270.685 72.2405 270.736C72.2623 270.788 72.2961 270.833 72.3391 270.869C72.382 270.904 72.4329 270.929 72.4873 270.941C74.9582 271.312 77.5618 272.019 80.0746 271.641C81.5543 271.382 83.3831 270.465 83.1597 268.673ZM76.3682 270.731C75.1467 270.584 73.9392 270.367 72.7107 270.262C74.0483 269.52 75.4228 268.847 76.8289 268.246C77.5101 267.965 78.2097 267.731 78.9229 267.546C80.0397 267.28 83.76 267.455 81.8196 269.954C80.7516 271.333 77.82 270.913 76.3682 270.731Z" fill="#263238"/>
<path d="M66.31 266.146C67.8805 268.155 70.2677 269.415 72.3337 270.829C72.382 270.857 72.4361 270.872 72.4917 270.875C72.5473 270.877 72.6026 270.867 72.6532 270.843C72.7037 270.82 72.7479 270.785 72.7822 270.741C72.8165 270.697 72.8398 270.646 72.8503 270.591C72.8991 270.591 72.948 270.591 72.941 270.514C72.7142 267.854 71.7947 265.3 70.2746 263.108C69.3603 261.855 67.4826 260.672 66.0866 261.897C64.6906 263.122 65.3817 264.977 66.31 266.146ZM66.1634 263.745C66.4356 260.588 69.2835 262.996 69.9187 263.955C70.3182 264.578 70.675 265.229 70.9866 265.901C71.6096 267.3 72.1617 268.73 72.6409 270.185C71.6637 269.429 70.6376 268.785 69.6395 268.043C68.404 267.182 66.0029 265.488 66.1495 263.745H66.1634Z" fill="#263238"/>
<path d="M84.458 253.721C83.76 253.252 82.9992 252.874 82.2872 252.475C81.5753 252.076 80.6609 251.586 79.8582 251.131C78.3086 250.242 76.7451 249.381 75.1816 248.534C72.0196 246.826 68.8158 245.181 65.5771 243.634L62.8968 242.36C61.9405 241.905 60.9633 241.506 60.028 241.016C59.9582 240.974 59.9163 241.065 59.9861 241.1C61.5985 241.926 63.1481 242.92 64.7255 243.809C66.303 244.698 67.8386 245.545 69.4091 246.385C72.578 248.086 75.7888 249.724 79.0345 251.285C79.928 251.705 80.8075 252.153 81.7009 252.58C82.1755 252.811 82.6572 253.021 83.0969 253.28C83.5366 253.539 83.9275 253.721 84.3673 253.882C84.3886 253.894 84.4137 253.897 84.4373 253.89C84.4609 253.884 84.4809 253.868 84.4929 253.847C84.5049 253.825 84.508 253.8 84.5015 253.777C84.4949 253.753 84.4793 253.733 84.458 253.721Z" fill="#263238"/>
<path d="M81.2751 75.8508C51.9591 75.8508 51.9102 117.655 81.2751 117.655C110.64 117.655 110.633 75.8508 81.2751 75.8508Z" fill="#EBEBEB"/>
<path d="M99.116 100.673C97.5386 107.862 91.5916 114.071 81.2682 114.071C56.908 114.071 56.9429 79.3788 81.2682 79.3788H81.7498C58.8554 79.7988 58.9671 112.657 82.1965 112.657C91.6754 112.671 97.3222 107.19 99.116 100.673Z" fill="#DBDBDB"/>
<path d="M81.4496 83.9708C81.6424 83.9651 81.8298 84.035 81.9719 84.1657C82.114 84.2965 82.1996 84.4777 82.2104 84.6708V85.8328C84.2452 85.971 86.201 86.6765 87.8573 87.8698C88.1365 88.0728 88.297 88.2478 88.297 88.5698C88.2758 88.7704 88.1784 88.955 88.025 89.0853C87.8716 89.2157 87.6741 89.2818 87.4734 89.2698C87.2638 89.2777 87.0591 89.2051 86.901 89.0668C85.5213 88.0082 83.8759 87.354 82.1476 87.1768V95.3178C86.9638 96.2488 88.995 97.9078 88.995 100.764C88.995 103.844 86.203 106.028 82.2104 106.147V108.415C82.2104 108.617 82.1303 108.811 81.9876 108.954C81.8449 109.097 81.6514 109.178 81.4496 109.178C81.2478 109.178 81.0543 109.097 80.9116 108.954C80.769 108.811 80.6888 108.617 80.6888 108.415V106.119C78.0764 105.961 75.5802 104.982 73.5552 103.319C73.4487 103.257 73.3604 103.168 73.2991 103.061C73.2378 102.954 73.2058 102.833 73.2062 102.71C73.2301 102.517 73.3234 102.339 73.4686 102.21C73.6138 102.081 73.801 102.01 73.995 102.01C74.204 102.006 74.4073 102.078 74.5673 102.213C76.29 103.742 78.4591 104.673 80.7516 104.866V96.5218C75.9913 95.5628 74.0299 93.9598 74.0299 91.0478C74.0299 88.1358 76.8219 85.8678 80.6888 85.7838V84.6708C80.6996 84.4777 80.7852 84.2965 80.9273 84.1657C81.0694 84.035 81.2569 83.9651 81.4496 83.9708ZM80.7516 95.0308V87.0928C77.6734 87.1488 75.6423 88.8358 75.6423 90.9358C75.6423 92.9098 76.6613 94.1348 80.7516 95.0378V95.0308ZM82.1476 96.8018V104.838C85.3165 104.782 87.3826 103.088 87.3826 100.876C87.3826 98.8808 86.2658 97.6558 82.1476 96.8088V96.8018Z" fill="#DBDBDB"/>
<path d="M55.6376 170.183C20.3397 176.532 29.658 228.983 65.0187 222.613C100.379 216.243 90.9983 163.82 55.6376 170.183Z" fill="#DBDBDB"/>
<path d="M58.953 169.581C25.3094 175.671 34.6347 228.08 68.3342 222.018C102.034 215.956 92.6525 163.519 58.953 169.581Z" fill="#EBEBEB"/>
<path d="M84.9815 197.035C84.8 206.38 79.3975 215.431 67.5315 217.559C39.5696 222.592 31.8288 179.059 59.7488 174.04C59.9303 174.04 60.1118 173.977 60.2933 173.956C34.1113 179.213 41.6148 220.401 68.2784 215.606C79.1532 213.646 84.4022 205.582 84.9815 197.035Z" fill="#DBDBDB"/>
<path d="M60.9773 179.745C61.2054 179.705 61.4399 179.756 61.6313 179.887C61.8226 180.018 61.956 180.218 62.0033 180.445L62.2686 181.908C64.6686 181.673 67.084 182.16 69.2067 183.308C69.5766 183.511 69.8 183.693 69.8628 184.057C69.9016 184.301 69.8439 184.552 69.7018 184.754C69.5598 184.957 69.3446 185.096 69.102 185.142C68.9823 185.167 68.8586 185.168 68.7386 185.144C68.6186 185.12 68.5047 185.071 68.404 185.002C66.6205 183.97 64.5753 183.484 62.5198 183.602L64.3207 193.871C70.0652 194.039 72.7665 195.705 73.3947 199.282C74.0927 203.153 71.3007 206.471 66.8125 207.437L67.3221 210.279C67.3427 210.394 67.3406 210.512 67.3158 210.626C67.291 210.74 67.244 210.848 67.1776 210.944C67.1112 211.04 67.0265 211.121 66.9286 211.184C66.8306 211.248 66.7212 211.291 66.6066 211.311C66.4921 211.332 66.3745 211.33 66.2608 211.305C66.147 211.28 66.0393 211.233 65.9437 211.166C65.8481 211.1 65.7665 211.015 65.7036 210.917C65.6407 210.818 65.5977 210.709 65.5771 210.594L65.0606 207.71C61.9681 208.02 58.8613 207.281 56.2378 205.61C56.0547 205.53 55.9021 205.393 55.8027 205.22C55.7032 205.046 55.6622 204.845 55.6857 204.646C55.7092 204.447 55.796 204.261 55.9331 204.116C56.0703 203.971 56.2506 203.873 56.4472 203.839C56.5671 203.815 56.6904 203.815 56.8102 203.839C56.9299 203.863 57.0438 203.911 57.1452 203.979C59.3975 205.518 62.1064 206.239 64.8232 206.023L62.9875 195.621C57.3128 195.397 54.7022 193.794 54.0461 190.147C53.39 186.5 56.0843 183.07 60.5096 182.167L60.2583 180.767C60.2234 180.536 60.2788 180.301 60.4128 180.111C60.5468 179.92 60.7491 179.789 60.9773 179.745ZM62.6594 193.745L60.8726 183.791C57.3826 184.491 55.4072 187.039 55.8749 189.664C56.3216 192.149 57.7595 193.472 62.6594 193.759V193.745ZM64.6557 195.684L66.4566 205.771C70.0862 205.071 72.0755 202.502 71.5799 199.723C71.1262 197.21 69.5766 195.901 64.6557 195.698V195.684Z" fill="#DBDBDB"/>
<path d="M104.407 137.661C104.407 137.661 111.952 212.449 112.127 213.394C112.127 213.52 112.204 214.955 112.28 217.307C112.685 230.18 113.676 270.325 113.676 270.325H144.486C144.486 270.325 142.476 222.774 141.324 211.686C139.858 197.532 130.596 137.661 130.596 137.661H104.407Z" fill="#455A64"/>
<path d="M115.798 216.033C114.868 199.825 113.441 183.658 111.519 167.53C110.438 158.43 109.139 149.393 107.841 140.335C107.841 140.258 107.708 140.258 107.722 140.335C110.103 156.435 111.792 172.703 113.244 188.936C114.695 205.169 115.707 221.388 116.364 237.649C116.741 246.861 117.027 256.08 117.32 265.299C117.328 265.338 117.349 265.374 117.38 265.399C117.412 265.425 117.451 265.439 117.491 265.439C117.531 265.439 117.57 265.425 117.601 265.399C117.632 265.374 117.654 265.338 117.662 265.299C117.264 248.863 116.754 232.434 115.798 216.033Z" fill="#263238"/>
<path d="M104.407 137.661C104.407 137.661 111.952 212.449 112.127 213.394C112.127 213.52 112.204 214.955 112.28 217.307L126.778 137.661H104.407Z" fill="#263238"/>
<path d="M130.561 137.661C130.561 137.661 128.669 148.973 121.41 154.804C121.41 154.804 110.703 199.737 108.358 208.088C104.826 220.688 83.1737 259.888 83.1737 259.888L56.0913 245.923C56.0913 245.923 78.2947 203.643 80.6818 200.339C82.2663 198.141 88.8554 161.391 88.646 160.236C86.1751 146.516 92.3524 137.64 92.3524 137.64L130.561 137.661Z" fill="#455A64"/>
<path d="M105.398 140.062C104.88 142.262 103.653 144.23 101.908 145.662C99.9717 147.183 97.6365 148.107 95.1863 148.322C94.7745 148.378 94.7745 149.022 95.1863 149.022C100.198 148.819 105.112 145.382 105.607 140.132C105.58 139.971 105.398 139.971 105.398 140.062Z" fill="#263238"/>
<path d="M126.066 151.171C124.282 151.99 122.588 152.994 121.012 154.167C119.344 155.308 117.808 156.638 116.203 157.863C116.14 157.912 116.203 158.01 116.266 157.968C117.962 156.883 119.756 155.931 121.41 154.811C123.089 153.789 124.673 152.617 126.143 151.311C126.198 151.248 126.136 151.171 126.066 151.171Z" fill="#263238"/>
<path d="M126.289 140.671C126.08 141.84 125.794 142.988 125.542 144.171C125.291 145.354 125.138 146.362 124.844 147.433C124.609 148.471 124.084 149.42 123.33 150.17C122.904 150.569 122.436 150.919 121.983 151.283C121.738 151.479 121.473 151.661 121.222 151.864C121.222 151.71 121.285 151.549 121.312 151.395C121.389 150.954 121.459 150.513 121.536 150.072C121.696 149.092 121.857 148.105 122.003 147.125C122.297 145.193 122.569 143.247 122.974 141.336C122.974 141.259 122.869 141.224 122.855 141.336C122.373 143.233 121.843 145.109 121.424 147.013C121.222 147.951 120.489 152.613 120.461 152.907C120.433 153.201 120.398 153.607 120.384 153.922C120.339 154.266 120.339 154.614 120.384 154.958C120.391 154.973 120.401 154.986 120.415 154.995C120.429 155.004 120.445 155.008 120.461 155.008C120.477 155.008 120.493 155.004 120.507 154.995C120.52 154.986 120.531 154.973 120.538 154.958C120.677 154.638 120.776 154.302 120.831 153.957C120.915 153.628 120.991 153.292 121.047 152.956C121.047 152.837 121.089 152.711 121.103 152.585C121.557 152.312 121.983 151.948 122.408 151.633C122.834 151.318 123.33 150.982 123.762 150.618C124.563 149.94 125.14 149.034 125.417 148.021C125.696 146.931 125.878 145.818 125.961 144.696C126.108 143.38 126.212 142.064 126.401 140.755C126.422 140.615 126.338 140.58 126.289 140.671Z" fill="#263238"/>
<path d="M97.72 135.456C93.738 140.388 91.5255 146.519 91.438 152.865C91.4145 154.535 91.5312 156.205 91.787 157.856C92.117 159.671 92.2805 161.513 92.2756 163.358C92.1594 165.271 91.9028 167.173 91.5078 169.049C91.1588 170.939 90.7958 172.824 90.4189 174.705C89.6744 178.438 88.881 182.157 88.0387 185.863C87.2081 189.538 86.3984 193.234 85.3863 196.86C84.4939 200.352 83.0519 203.679 81.1146 206.716C79.2369 209.859 77.4152 213.016 75.7679 216.285C74.0462 219.715 72.3384 223.156 70.6446 226.61C69.807 228.311 68.9833 230.019 68.1527 231.727C67.3221 233.435 66.4147 235.171 65.612 236.956C65.2211 237.845 64.8093 238.713 64.3835 239.588C64.3416 239.672 64.4742 239.749 64.5161 239.658C65.3956 237.936 66.3379 236.256 67.2313 234.541C68.1248 232.826 68.9694 231.174 69.8419 229.487C71.5938 226.085 73.3319 222.662 75.035 219.239C76.7381 215.816 78.3854 212.561 80.3049 209.355C82.1267 206.324 83.9554 203.342 85.1001 199.975C86.2449 196.608 87.0545 192.891 87.8921 189.328C88.767 185.632 89.5883 181.92 90.3561 178.191C91.1378 174.453 91.9266 170.701 92.5338 166.928C92.8567 165.148 92.9645 163.336 92.8549 161.531C92.7083 159.683 92.3105 157.87 92.1569 156.029C91.5404 149.554 93.082 143.058 96.5404 137.556C96.9661 136.856 97.3989 136.205 97.8666 135.554C97.9084 135.477 97.7828 135.386 97.72 135.456Z" fill="#263238"/>
<path d="M117.341 96.0598C127.017 96.0598 134.861 87.8895 134.861 77.8108C134.861 67.7322 127.017 59.5618 117.341 59.5618C107.665 59.5618 99.821 67.7322 99.821 77.8108C99.821 87.8895 107.665 96.0598 117.341 96.0598Z" fill="#263238"/>
<path d="M108.951 90.9708C108.951 91.4502 108.809 91.9187 108.543 92.3171C108.278 92.7156 107.9 93.026 107.458 93.2091C107.017 93.3922 106.531 93.4398 106.062 93.3458C105.593 93.2517 105.163 93.0204 104.826 92.681C104.488 92.3415 104.259 91.9093 104.166 91.439C104.074 90.9688 104.123 90.4815 104.307 90.0391C104.49 89.5967 104.801 89.2189 105.199 88.9536C105.597 88.6883 106.065 88.5474 106.543 88.5488C106.86 88.5479 107.174 88.61 107.467 88.7314C107.76 88.8529 108.026 89.0314 108.25 89.2566C108.474 89.4817 108.651 89.7492 108.771 90.0434C108.892 90.3376 108.953 90.6528 108.951 90.9708Z" fill="#263238"/>
<path d="M134.553 87.3168C134.555 87.7962 134.414 88.2651 134.15 88.6643C133.885 89.0635 133.509 89.3751 133.067 89.5595C132.626 89.7439 132.14 89.7928 131.672 89.7002C131.203 89.6075 130.772 89.3774 130.433 89.0389C130.095 88.7005 129.864 88.2689 129.77 87.7989C129.676 87.3289 129.724 86.8416 129.906 86.3986C130.089 85.9556 130.399 85.577 130.796 85.3105C131.193 85.0441 131.66 84.9018 132.138 84.9018C132.778 84.9018 133.391 85.1561 133.844 85.6088C134.296 86.0615 134.552 86.6757 134.553 87.3168Z" fill="#263238"/>
<path d="M136.969 76.0258C136.969 76.5049 136.827 76.9731 136.562 77.3714C136.296 77.7697 135.919 78.0801 135.478 78.2635C135.036 78.4468 134.551 78.4947 134.082 78.4013C133.614 78.3078 133.183 78.0772 132.846 77.7384C132.508 77.3997 132.278 76.9682 132.185 76.4983C132.092 76.0285 132.139 75.5415 132.322 75.099C132.505 74.6564 132.815 74.2781 133.212 74.012C133.609 73.7459 134.076 73.6038 134.553 73.6038C134.871 73.6029 135.185 73.6649 135.479 73.7863C135.772 73.9077 136.039 74.0861 136.263 74.3112C136.488 74.5362 136.666 74.8036 136.787 75.0979C136.908 75.3921 136.969 75.7075 136.969 76.0258Z" fill="#263238"/>
<path d="M103.437 73.8208C103.438 74.3002 103.298 74.7691 103.033 75.1683C102.768 75.5675 102.392 75.8791 101.951 76.0635C101.509 76.2478 101.024 76.2968 100.555 76.2042C100.086 76.1115 99.6547 75.8814 99.3163 75.5429C98.9778 75.2045 98.7471 74.7729 98.6534 74.3029C98.5596 73.8329 98.607 73.3456 98.7896 72.9026C98.9722 72.4596 99.2817 72.081 99.679 71.8145C100.076 71.5481 100.544 71.4058 101.022 71.4058C101.661 71.4058 102.274 71.66 102.727 72.1127C103.179 72.5654 103.435 73.1797 103.437 73.8208Z" fill="#263238"/>
<path d="M106.543 67.3038C106.543 67.7829 106.401 68.2511 106.136 68.6494C105.87 69.0477 105.493 69.3582 105.052 69.5415C104.611 69.7248 104.125 69.7728 103.657 69.6793C103.188 69.5858 102.758 69.3552 102.42 69.0164C102.082 68.6777 101.852 68.2462 101.759 67.7763C101.666 67.3065 101.714 66.8195 101.896 66.377C102.079 65.9344 102.389 65.5561 102.786 65.29C103.183 65.0239 103.65 64.8818 104.128 64.8818C104.768 64.8818 105.382 65.137 105.835 65.5912C106.288 66.0454 106.543 66.6615 106.543 67.3038Z" fill="#263238"/>
<path d="M109.474 64.5668C109.476 65.0461 109.335 65.5151 109.071 65.9143C108.806 66.3135 108.429 66.6251 107.988 66.8094C107.547 66.9938 107.061 67.0428 106.592 66.9501C106.123 66.8575 105.692 66.6274 105.354 66.2889C105.016 65.9505 104.785 65.5189 104.691 65.0489C104.597 64.5789 104.645 64.0916 104.827 63.6486C105.01 63.2056 105.319 62.8269 105.717 62.5605C106.114 62.2941 106.581 62.1518 107.059 62.1518C107.699 62.1518 108.312 62.406 108.764 62.8587C109.217 63.3114 109.472 63.9257 109.474 64.5668Z" fill="#263238"/>
<path d="M112.378 61.5708C112.378 62.0499 112.236 62.5181 111.971 62.9164C111.706 63.3147 111.328 63.6252 110.887 63.8085C110.446 63.9918 109.96 64.0397 109.492 63.9463C109.023 63.8528 108.593 63.6222 108.255 63.2834C107.917 62.9447 107.687 62.5132 107.594 62.0433C107.501 61.5735 107.549 61.0865 107.732 60.644C107.914 60.2014 108.224 59.8231 108.621 59.557C109.018 59.2909 109.485 59.1488 109.963 59.1488C110.603 59.1488 111.218 59.404 111.671 59.8582C112.124 60.3124 112.378 60.9285 112.378 61.5708Z" fill="#263238"/>
<path d="M116.196 61.1228C116.197 61.6025 116.057 62.0717 115.792 62.4711C115.527 62.8704 115.15 63.1819 114.708 63.3661C114.267 63.5503 113.781 63.5989 113.312 63.5056C112.842 63.4124 112.411 63.1816 112.073 62.8424C111.735 62.5033 111.505 62.0711 111.412 61.6006C111.319 61.1301 111.367 60.6426 111.551 60.1997C111.735 59.7569 112.045 59.3787 112.444 59.1131C112.842 58.8475 113.31 58.7065 113.788 58.7078C114.427 58.7078 115.039 58.9623 115.491 59.4152C115.942 59.8681 116.196 60.4823 116.196 61.1228Z" fill="#263238"/>
<path d="M127.385 61.1228C127.386 61.6022 127.246 62.0711 126.981 62.4703C126.717 62.8695 126.34 63.1811 125.899 63.3655C125.458 63.5498 124.972 63.5988 124.503 63.5061C124.034 63.4135 123.603 63.1834 123.265 62.8449C122.926 62.5065 122.696 62.0749 122.602 61.6049C122.508 61.1349 122.555 60.6476 122.738 60.2046C122.921 59.7616 123.23 59.383 123.627 59.1165C124.025 58.8501 124.492 58.7078 124.97 58.7078C125.609 58.7078 126.222 58.9621 126.675 59.4148C127.128 59.8675 127.383 60.4817 127.385 61.1228Z" fill="#263238"/>
<path d="M130.317 68.2978C131.65 68.2978 132.732 67.2135 132.732 65.8758C132.732 64.5382 131.65 63.4538 130.317 63.4538C128.983 63.4538 127.902 64.5382 127.902 65.8758C127.902 67.2135 128.983 68.2978 130.317 68.2978Z" fill="#263238"/>
<path d="M104.651 84.4608C104.651 84.9399 104.51 85.4081 104.244 85.8064C103.979 86.2047 103.602 86.5152 103.16 86.6985C102.719 86.8818 102.233 86.9298 101.765 86.8363C101.296 86.7429 100.866 86.5122 100.528 86.1735C100.191 85.8347 99.9606 85.4032 99.8674 84.9334C99.7742 84.4635 99.822 83.9765 100.005 83.534C100.188 83.0914 100.497 82.7132 100.894 82.447C101.291 82.1809 101.758 82.0388 102.236 82.0388C102.553 82.0388 102.867 82.1015 103.16 82.2232C103.453 82.3449 103.72 82.5233 103.944 82.7482C104.168 82.9731 104.346 83.2401 104.467 83.534C104.589 83.8278 104.651 84.1428 104.651 84.4608Z" fill="#263238"/>
<path d="M115.317 94.1838C115.318 94.6631 115.178 95.1321 114.913 95.5313C114.648 95.9305 114.272 96.2421 113.831 96.4265C113.389 96.6108 112.904 96.6598 112.435 96.5671C111.966 96.4745 111.535 96.2444 111.196 95.9059C110.858 95.5675 110.627 95.1359 110.533 94.6659C110.44 94.1959 110.487 93.7086 110.67 93.2656C110.852 92.8226 111.162 92.4439 111.559 92.1775C111.956 91.9111 112.424 91.7688 112.902 91.7688C113.541 91.7688 114.154 92.023 114.607 92.4757C115.059 92.9284 115.315 93.5427 115.317 94.1838Z" fill="#263238"/>
<path d="M118.744 94.2188C118.744 94.6979 118.602 95.1661 118.337 95.5644C118.071 95.9627 117.694 96.2732 117.253 96.4565C116.812 96.6398 116.326 96.6878 115.857 96.5943C115.389 96.5008 114.959 96.2702 114.621 95.9315C114.283 95.5927 114.053 95.1612 113.96 94.6913C113.867 94.2215 113.915 93.7345 114.097 93.292C114.28 92.8494 114.59 92.4712 114.987 92.205C115.384 91.9389 115.851 91.7968 116.329 91.7968C116.969 91.7968 117.583 92.052 118.036 92.5062C118.489 92.9604 118.744 93.5765 118.744 94.2188Z" fill="#263238"/>
<path d="M103.437 80.9118C103.437 81.3909 103.295 81.8591 103.03 82.2574C102.764 82.6557 102.387 82.9662 101.946 83.1495C101.504 83.3328 101.019 83.3808 100.55 83.2873C100.082 83.1938 99.6516 82.9632 99.3138 82.6244C98.9761 82.2857 98.746 81.8542 98.6529 81.3843C98.5597 80.9145 98.6075 80.4275 98.7903 79.985C98.9731 79.5424 99.2826 79.1642 99.6798 78.898C100.077 78.6319 100.544 78.4898 101.022 78.4898C101.662 78.4898 102.276 78.745 102.729 79.1992C103.182 79.6534 103.437 80.2695 103.437 80.9118Z" fill="#263238"/>
<path d="M106.096 88.0098C106.096 88.4446 105.967 88.8695 105.727 89.231C105.486 89.5924 105.144 89.8741 104.743 90.0405C104.343 90.2069 103.902 90.2504 103.477 90.1656C103.052 90.0808 102.661 89.8714 102.355 89.564C102.048 89.2566 101.839 88.865 101.755 88.4386C101.67 88.0123 101.714 87.5703 101.879 87.1687C102.045 86.7671 102.326 86.4238 102.687 86.1823C103.047 85.9407 103.471 85.8118 103.904 85.8118C104.485 85.8137 105.041 86.0458 105.452 86.4576C105.863 86.8694 106.094 87.4275 106.096 88.0098Z" fill="#263238"/>
<path d="M119.756 59.9468C119.756 60.3816 119.627 60.8065 119.387 61.168C119.146 61.5294 118.803 61.8112 118.403 61.9775C118.002 62.1439 117.562 62.1874 117.137 62.1026C116.711 62.0178 116.321 61.8085 116.014 61.5011C115.708 61.1937 115.499 60.802 115.415 60.3757C115.33 59.9493 115.373 59.5073 115.539 59.1057C115.705 58.7041 115.986 58.3608 116.347 58.1193C116.707 57.8777 117.131 57.7488 117.564 57.7488C118.145 57.7507 118.701 57.9829 119.112 58.3947C119.523 58.8065 119.754 59.3645 119.756 59.9468Z" fill="#263238"/>
<path d="M103.213 77.3838C103.213 77.8185 103.085 78.2435 102.844 78.605C102.603 78.9664 102.261 79.2481 101.86 79.4145C101.46 79.5809 101.019 79.6244 100.594 79.5396C100.169 79.4548 99.7783 79.2454 99.4718 78.938C99.1653 78.6307 98.9565 78.239 98.8719 77.8126C98.7874 77.3863 98.8308 76.9443 98.9967 76.5427C99.1626 76.141 99.4435 75.7978 99.8039 75.5563C100.164 75.3147 100.588 75.1858 101.022 75.1858C101.602 75.1877 102.159 75.4198 102.569 75.8316C102.98 76.2435 103.211 76.8014 103.213 77.3838Z" fill="#263238"/>
<path d="M104.428 70.4958C104.428 70.9306 104.299 71.3555 104.058 71.717C103.818 72.0784 103.475 72.3602 103.075 72.5265C102.674 72.6929 102.234 72.7364 101.809 72.6516C101.383 72.5668 100.993 72.3575 100.686 72.0501C100.38 71.7427 100.171 71.351 100.086 70.9246C100.002 70.4983 100.045 70.0563 100.211 69.6547C100.377 69.2531 100.658 68.9098 101.018 68.6683C101.379 68.4267 101.803 68.2978 102.236 68.2978C102.817 68.2997 103.373 68.5319 103.784 68.9437C104.194 69.3555 104.426 69.9135 104.428 70.4958Z" fill="#263238"/>
<path d="M123.309 60.2128C123.31 60.6492 123.182 61.0762 122.942 61.4398C122.701 61.8033 122.358 62.087 121.956 62.255C121.555 62.4229 121.112 62.4676 120.685 62.3833C120.258 62.299 119.866 62.0896 119.558 61.7815C119.25 61.4734 119.039 61.0805 118.954 60.6526C118.869 60.2247 118.912 59.781 119.078 59.3776C119.244 58.9743 119.526 58.6295 119.888 58.3869C120.249 58.1443 120.675 58.0148 121.11 58.0148C121.692 58.0148 122.25 58.2462 122.662 58.6582C123.074 59.0702 123.307 59.6292 123.309 60.2128Z" fill="#263238"/>
<path d="M111.938 92.8398C111.938 93.2746 111.81 93.6995 111.569 94.061C111.328 94.4224 110.986 94.7042 110.585 94.8705C110.185 95.0369 109.744 95.0804 109.319 94.9956C108.894 94.9108 108.503 94.7015 108.197 94.3941C107.89 94.0867 107.681 93.695 107.597 93.2686C107.512 92.8423 107.556 92.4003 107.722 91.9987C107.888 91.5971 108.168 91.2538 108.529 91.0123C108.889 90.7707 109.313 90.6418 109.747 90.6418C110.328 90.6418 110.885 90.8734 111.296 91.2856C111.707 91.6978 111.938 92.2569 111.938 92.8398Z" fill="#263238"/>
<path d="M121.948 95.0378C121.948 95.4726 121.819 95.8975 121.578 96.259C121.337 96.6204 120.995 96.9022 120.595 97.0685C120.194 97.2349 119.753 97.2784 119.328 97.1936C118.903 97.1088 118.513 96.8994 118.206 96.5921C117.9 96.2847 117.691 95.893 117.606 95.4666C117.522 95.0403 117.565 94.5983 117.731 94.1967C117.897 93.7951 118.178 93.4518 118.538 93.2103C118.899 92.9687 119.322 92.8398 119.756 92.8398C120.337 92.8417 120.893 93.0738 121.304 93.4856C121.714 93.8974 121.946 94.4555 121.948 95.0378Z" fill="#263238"/>
<path d="M125.863 94.2188C125.863 94.6536 125.735 95.0785 125.494 95.44C125.253 95.8014 124.911 96.0832 124.51 96.2495C124.11 96.4159 123.669 96.4594 123.244 96.3746C122.819 96.2898 122.428 96.0804 122.122 95.7731C121.815 95.4657 121.607 95.074 121.522 94.6476C121.437 94.2213 121.481 93.7793 121.647 93.3777C121.813 92.9761 122.094 92.6328 122.454 92.3913C122.814 92.1497 123.238 92.0208 123.672 92.0208C124.253 92.0208 124.81 92.2524 125.221 92.6646C125.632 93.0768 125.863 93.6359 125.863 94.2188Z" fill="#263238"/>
<path d="M128.955 92.0208C128.955 92.4556 128.827 92.8805 128.586 93.242C128.345 93.6034 128.003 93.8852 127.602 94.0515C127.202 94.2179 126.761 94.2614 126.336 94.1766C125.911 94.0918 125.52 93.8825 125.214 93.5751C124.907 93.2677 124.699 92.876 124.614 92.4496C124.53 92.0233 124.573 91.5813 124.739 91.1797C124.905 90.7781 125.186 90.4348 125.546 90.1933C125.907 89.9517 126.33 89.8228 126.764 89.8228C127.344 89.8247 127.901 90.0568 128.311 90.4686C128.722 90.8805 128.954 91.4385 128.955 92.0208Z" fill="#263238"/>
<path d="M132.508 90.4948C132.508 90.9296 132.38 91.3545 132.139 91.716C131.898 92.0774 131.556 92.3592 131.155 92.5255C130.755 92.6919 130.314 92.7354 129.889 92.6506C129.464 92.5658 129.073 92.3564 128.767 92.0491C128.46 91.7417 128.252 91.35 128.167 90.9236C128.082 90.4973 128.126 90.0553 128.292 89.6537C128.458 89.2521 128.739 88.9088 129.099 88.6673C129.459 88.4257 129.883 88.2968 130.317 88.2968C130.897 88.2987 131.454 88.5308 131.864 88.9427C132.275 89.3545 132.506 89.9125 132.508 90.4948Z" fill="#263238"/>
<path d="M136.396 84.2158C136.396 84.6506 136.268 85.0755 136.027 85.437C135.786 85.7984 135.444 86.0802 135.043 86.2465C134.643 86.4129 134.202 86.4564 133.777 86.3716C133.352 86.2868 132.961 86.0774 132.655 85.77C132.348 85.4627 132.139 85.071 132.055 84.6446C131.97 84.2183 132.014 83.7763 132.18 83.3747C132.345 82.9731 132.626 82.6298 132.987 82.3883C133.347 82.1467 133.771 82.0178 134.204 82.0178C134.493 82.0169 134.778 82.0731 135.044 82.1833C135.311 82.2934 135.553 82.4553 135.756 82.6595C135.96 82.8638 136.121 83.1065 136.231 83.3736C136.341 83.6407 136.397 83.9269 136.396 84.2158Z" fill="#263238"/>
<path d="M136.396 80.1628C136.396 80.5976 136.268 81.0225 136.027 81.384C135.786 81.7454 135.444 82.0272 135.043 82.1935C134.643 82.3599 134.202 82.4034 133.777 82.3186C133.352 82.2338 132.961 82.0244 132.655 81.7171C132.348 81.4097 132.139 81.018 132.055 80.5916C131.97 80.1653 132.014 79.7233 132.18 79.3217C132.345 78.9201 132.626 78.5768 132.987 78.3353C133.347 78.0937 133.771 77.9648 134.204 77.9648C134.786 77.9648 135.343 78.1964 135.754 78.6086C136.165 79.0208 136.396 79.5799 136.396 80.1628Z" fill="#263238"/>
<path d="M128.125 64.8818C129.335 64.8818 130.317 63.8978 130.317 62.6838C130.317 61.4699 129.335 60.4858 128.125 60.4858C126.914 60.4858 125.933 61.4699 125.933 62.6838C125.933 63.8978 126.914 64.8818 128.125 64.8818Z" fill="#263238"/>
<path d="M133.206 70.8878C134.417 70.8878 135.398 69.9037 135.398 68.6898C135.398 67.4759 134.417 66.4918 133.206 66.4918C131.996 66.4918 131.015 67.4759 131.015 68.6898C131.015 69.9037 131.996 70.8878 133.206 70.8878Z" fill="#263238"/>
<path d="M135.88 72.1688C135.88 72.6036 135.751 73.0285 135.51 73.39C135.269 73.7514 134.927 74.0332 134.527 74.1995C134.126 74.3659 133.686 74.4094 133.26 74.3246C132.835 74.2398 132.445 74.0305 132.138 73.7231C131.832 73.4157 131.623 73.024 131.538 72.5976C131.454 72.1713 131.497 71.7293 131.663 71.3277C131.829 70.9261 132.11 70.5828 132.47 70.3413C132.831 70.0997 133.254 69.9708 133.688 69.9708C134.269 69.9708 134.827 70.2024 135.238 70.6146C135.649 71.0268 135.88 71.5859 135.88 72.1688Z" fill="#263238"/>
<path d="M119.993 100.813C122.038 105.335 136.627 120.007 148.814 124.732C153.281 126.468 172.846 122.261 177.501 120.42C182.946 118.264 179.686 104.691 176.238 104.621C171.938 104.53 153.392 108.52 149.449 108.331C144.654 108.1 133.709 100.47 124.321 96.5568C119.512 94.5478 118.416 97.3268 119.993 100.813Z" fill="#D3766A"/>
<path d="M177.501 120.42C179.246 119.825 187.029 116.402 188.977 114.96C190.924 113.518 196.25 108.975 195.3 107.365C194.351 105.755 192.69 106.959 192.69 106.959C192.69 106.959 194.637 104.684 193.535 103.144C192.432 101.604 189.905 103.571 189.905 103.571C189.905 103.571 191.734 101.086 190.526 99.6368C189.319 98.1878 187.106 100.589 187.106 100.589C187.106 100.589 188.886 98.3908 187.385 97.6138C185.584 96.6828 182.771 101.114 180.496 102.514C179.979 102.843 169.565 108.331 169.565 108.331L177.501 120.42Z" fill="#D3766A"/>
<path d="M187.301 100.386C185.207 103.627 183.755 104.684 180.321 106.287C180.252 106.322 180.286 106.427 180.321 106.399C183.811 105.132 185.856 104.075 187.42 100.477C187.539 100.302 187.399 100.232 187.301 100.386Z" fill="#263238"/>
<path d="M190.065 103.312C187.615 106.49 186.038 107.652 182.569 109.612C182.52 109.612 182.569 109.724 182.611 109.703C186.171 108.079 188.195 106.973 190.212 103.48C190.303 103.305 190.177 103.172 190.065 103.312Z" fill="#263238"/>
<path d="M192.515 107.071C189.919 109.976 188.237 111.327 184.628 112.783C184.61 112.789 184.596 112.803 184.588 112.82C184.58 112.837 184.58 112.856 184.586 112.874C184.593 112.891 184.606 112.906 184.623 112.914C184.64 112.922 184.659 112.922 184.677 112.916C187.966 112.114 190.809 110.047 192.592 107.162C192.725 106.938 192.648 106.868 192.515 107.071Z" fill="#263238"/>
<path d="M166.382 108.569C166.382 108.569 169.495 104.887 171.219 103.578C172.944 102.269 181.173 99.7348 181.815 101.478C182.646 103.739 178.186 106.14 175.847 107.022C175.847 107.022 177.774 112.251 174.947 114.666C172.12 117.081 166.382 108.569 166.382 108.569Z" fill="#D3766A"/>
<path d="M181.843 102.171C181.145 104.782 177.976 105.748 175.77 106.777C175.736 106.79 175.706 106.811 175.682 106.838C175.659 106.866 175.642 106.899 175.635 106.934C175.627 106.97 175.628 107.007 175.639 107.042C175.649 107.076 175.668 107.108 175.694 107.134C176.35 109.381 176.636 112.734 175.093 114.673C175.083 114.684 175.078 114.699 175.078 114.714C175.079 114.729 175.086 114.743 175.097 114.753C175.108 114.764 175.123 114.769 175.138 114.768C175.153 114.768 175.167 114.761 175.177 114.75C177.111 112.902 177.104 109.577 176.217 107.162C178.493 106.147 181.606 105.062 181.871 102.178L181.843 102.171Z" fill="#263238"/>
<path d="M133.318 117.473L141.736 104.558C141.736 104.558 131.552 98.7758 125.828 96.5288C120.105 94.2818 115.456 96.0388 120.942 103.697C125.556 110.2 133.318 117.473 133.318 117.473Z" fill="#263238"/>
<path d="M132.069 127.462L132.278 145.662C132.278 145.662 95.8214 141.672 88.1085 139.782C88.1085 139.782 101.803 109.717 113.355 97.3408C118.548 93.0008 123.455 95.4578 126.526 98.9368C127.287 99.8048 135.265 113.903 135.447 118.88C135.6 123.262 132.069 127.462 132.069 127.462Z" fill="#4285F4"/>
<path d="M117.718 96.5708C117.892 97.2708 121.208 101.667 124.37 101.471C125.389 101.408 125.277 95.8008 125.277 95.8008L125.368 95.3878L126.568 89.5708L119.707 85.3708L118.716 84.8108C118.716 84.8108 118.492 86.4208 118.234 88.4298C118.234 88.5278 118.234 88.6188 118.234 88.7168C118.234 88.8148 118.199 88.9408 118.185 89.0458C118.143 89.3468 118.102 89.6548 118.067 89.9558C118.032 90.2568 118.011 90.4178 117.99 90.6558C117.969 90.8938 117.941 91.1388 117.913 91.3908C117.729 93.1109 117.664 94.8417 117.718 96.5708Z" fill="#D3766A"/>
<path d="M118.234 88.3948C118.845 90.0112 119.8 91.4747 121.032 92.6835C122.263 93.8924 123.743 94.8176 125.368 95.3948L126.568 89.5778L119.707 85.3708L118.716 84.8108C118.716 84.8108 118.493 86.3858 118.234 88.3948Z" fill="#263238"/>
<path d="M134.288 80.2048C135.398 90.5718 129.332 92.4128 127.099 92.6438C125.075 92.8608 118.157 93.3438 115.987 83.1378C113.816 72.9318 118.276 69.1378 122.883 68.4378C127.49 67.7378 133.185 69.8378 134.288 80.2048Z" fill="#D3766A"/>
<path d="M132.215 78.8329C131.971 78.8329 131.748 78.7559 131.517 78.7139C131.262 78.7033 131.017 78.61 130.819 78.4478C130.77 78.3823 130.743 78.3024 130.743 78.2204C130.743 78.1383 130.77 78.0584 130.819 77.9929C130.934 77.8753 131.078 77.7907 131.236 77.7476C131.394 77.7045 131.561 77.7046 131.72 77.7478C132.052 77.7834 132.358 77.9434 132.578 78.1958C132.629 78.2572 132.66 78.3327 132.666 78.4121C132.673 78.4915 132.656 78.5711 132.616 78.6403C132.577 78.7095 132.517 78.765 132.446 78.7994C132.374 78.8338 132.294 78.8455 132.215 78.8329Z" fill="#263238"/>
<path d="M125.033 79.3228C125.277 79.2808 125.493 79.2108 125.731 79.1478C125.992 79.1241 126.238 79.0132 126.429 78.8328C126.478 78.7673 126.505 78.6874 126.505 78.6053C126.505 78.5233 126.478 78.4434 126.429 78.3778C126.307 78.2699 126.159 78.1963 126 78.1643C125.84 78.1323 125.675 78.1432 125.521 78.1958C125.191 78.2569 124.895 78.439 124.691 78.7068C124.651 78.7677 124.629 78.8381 124.627 78.9105C124.625 78.983 124.642 79.0547 124.677 79.118C124.712 79.1814 124.764 79.2339 124.827 79.27C124.889 79.3061 124.961 79.3243 125.033 79.3228Z" fill="#263238"/>
<path d="M126.513 81.8708C126.513 81.8708 126.464 81.9058 126.464 81.9338C126.526 82.6338 126.464 83.4668 125.856 83.7398C126.638 83.6488 126.687 82.5708 126.513 81.8708Z" fill="#263238"/>
<path d="M125.835 81.1708C124.698 81.1708 124.747 83.4388 125.801 83.4598C126.855 83.4808 126.792 81.2128 125.835 81.1708Z" fill="#263238"/>
<path d="M125.389 81.3249C125.193 81.4579 125.005 81.6958 124.768 81.7238C124.53 81.7518 124.272 81.5208 124.07 81.2968H124.035C124.035 81.7308 124.216 82.1789 124.684 82.2349C125.151 82.2909 125.382 81.8918 125.514 81.4438C125.542 81.3948 125.473 81.2759 125.389 81.3249Z" fill="#263238"/>
<path d="M130.938 81.4788C130.938 81.4788 130.994 81.5138 130.994 81.5418C130.994 82.2418 131.084 83.0678 131.734 83.2988C131.734 83.2988 131.734 83.3408 131.734 83.3338C130.945 83.2708 130.812 82.1508 130.938 81.4788Z" fill="#263238"/>
<path d="M131.566 80.7298C132.704 80.6318 132.822 82.9208 131.768 83.0118C130.714 83.1028 130.61 80.8138 131.566 80.7298Z" fill="#263238"/>
<path d="M132.048 80.8558C132.236 80.9678 132.425 81.1778 132.641 81.1848C132.857 81.1918 133.06 80.9258 133.206 80.6808C133.206 80.6808 133.206 80.6808 133.248 80.6808C133.248 81.1148 133.157 81.5768 132.746 81.6818C132.334 81.7868 132.048 81.4228 131.943 80.9818C131.922 80.9398 131.971 80.8138 132.048 80.8558Z" fill="#263238"/>
<path d="M126.973 87.3378C127.141 87.5058 127.308 87.7368 127.56 87.7648C127.823 87.7665 128.085 87.7141 128.327 87.6108C128.327 87.6108 128.369 87.6108 128.327 87.6458C128.222 87.7822 128.083 87.8878 127.923 87.9518C127.764 88.0158 127.59 88.0358 127.42 88.0098C127.276 87.9686 127.149 87.8853 127.053 87.7705C126.957 87.6557 126.898 87.5147 126.882 87.3658C126.896 87.3238 126.952 87.3098 126.973 87.3378Z" fill="#263238"/>
<path d="M129.828 84.6708C129.828 84.6708 130.01 85.7208 130.03 86.2248C130.03 86.2668 129.912 86.2948 129.737 86.3088C129.312 86.4025 128.869 86.3762 128.457 86.2329C128.046 86.0896 127.682 85.8348 127.406 85.4968C127.364 85.4548 127.406 85.3988 127.476 85.4268C128.125 85.8435 128.892 86.0376 129.661 85.9798C129.661 85.8398 129.291 84.1808 129.367 84.1738C129.757 84.1934 130.142 84.2664 130.512 84.3908C130.198 82.1858 129.535 80.0438 129.256 77.8388C129.256 77.7618 129.36 77.7338 129.381 77.8038C130.165 80.0758 130.719 82.4209 131.036 84.8038C131.091 85.0978 130.051 84.7548 129.828 84.6708Z" fill="#263238"/>
<path d="M117.124 83.7818C118.918 84.5308 118.13 81.4648 118.13 81.4648C118.13 81.4648 119.686 80.5338 118.883 78.3498C118.883 78.3498 121.033 78.9868 121.264 75.9278C121.528 75.901 121.783 75.8199 122.015 75.6896C122.246 75.5593 122.449 75.3826 122.609 75.1705C122.77 74.9584 122.885 74.7154 122.947 74.4567C123.01 74.198 123.019 73.9291 122.974 73.6668C122.974 73.6668 125.507 75.0668 126.54 72.7078C126.54 72.7078 128.376 74.7518 129.835 72.7078C130.037 73.0946 130.367 73.3989 130.768 73.5687C131.169 73.7386 131.616 73.7634 132.034 73.6388C132.1 74.0404 132.254 74.4225 132.483 74.7586C132.712 75.0947 133.011 75.3767 133.36 75.5848C133.36 75.5848 130.303 64.9448 120.712 68.6758C111.855 72.1478 115.037 82.9208 117.124 83.7818Z" fill="#263238"/>
<path d="M117.794 84.0688C117.794 84.0688 115.463 80.8628 114.004 81.7028C112.545 82.5428 114.346 87.2258 116.098 87.8348C116.316 87.9277 116.551 87.9756 116.788 87.9757C117.025 87.9758 117.26 87.928 117.478 87.8353C117.696 87.7425 117.893 87.6067 118.058 87.4358C118.223 87.265 118.351 87.0627 118.437 86.8408L117.794 84.0688Z" fill="#D3766A"/>
<path d="M114.556 83.0328C114.556 83.0328 114.521 83.0678 114.556 83.0748C115.777 83.5438 116.433 84.6568 116.908 85.8188C116.835 85.6991 116.736 85.5967 116.62 85.5184C116.503 85.4402 116.371 85.388 116.233 85.3654C116.095 85.3429 115.953 85.3504 115.818 85.3876C115.682 85.4247 115.557 85.4907 115.449 85.5808C115.449 85.5808 115.449 85.6508 115.484 85.6438C115.696 85.5728 115.924 85.5689 116.137 85.6328C116.351 85.6967 116.54 85.8252 116.678 86.0008C116.909 86.2956 117.108 86.6148 117.271 86.9528C117.327 87.0578 117.522 87.0018 117.48 86.8758C117.459 85.2938 116.217 83.1518 114.556 83.0328Z" fill="#263238"/>
<path d="M241.32 86.9108L241.473 145.375C241.475 146.152 241.324 146.921 241.029 147.639C240.735 148.358 240.302 149.011 239.755 149.561C239.209 150.112 238.56 150.549 237.845 150.848C237.13 151.147 236.364 151.302 235.589 151.304L143.139 151.549C142.364 151.551 141.596 151.399 140.879 151.103C140.162 150.807 139.511 150.373 138.962 149.824C138.413 149.275 137.977 148.623 137.679 147.906C137.381 147.188 137.228 146.418 137.227 145.641L137.073 87.1838C137.071 85.7233 137.647 84.3217 138.674 83.2863C139.702 82.251 141.096 81.6664 142.553 81.6608L235.819 81.4228C236.54 81.421 237.254 81.5615 237.92 81.8363C238.586 82.1111 239.192 82.5148 239.703 83.0244C240.214 83.534 240.619 84.1396 240.897 84.8064C241.174 85.4732 241.318 86.1883 241.32 86.9108Z" fill="#4285F4"/>
<path opacity="0.2" d="M241.32 86.9108L241.473 145.375C241.475 146.152 241.324 146.921 241.029 147.639C240.735 148.358 240.302 149.011 239.755 149.561C239.209 150.112 238.56 150.549 237.845 150.848C237.13 151.147 236.364 151.302 235.589 151.304L143.139 151.549C142.364 151.551 141.596 151.399 140.879 151.103C140.162 150.807 139.511 150.373 138.962 149.824C138.413 149.275 137.977 148.623 137.679 147.906C137.381 147.188 137.228 146.418 137.227 145.641L137.073 87.1838C137.071 85.7233 137.647 84.3217 138.674 83.2863C139.702 82.251 141.096 81.6664 142.553 81.6608L235.819 81.4228C236.54 81.421 237.254 81.5615 237.92 81.8363C238.586 82.1111 239.192 82.5148 239.703 83.0244C240.214 83.534 240.619 84.1396 240.897 84.8064C241.174 85.4732 241.318 86.1883 241.32 86.9108Z" fill="black"/>
<path d="M162.488 91.6498L148.779 91.6858C147.16 91.6901 145.851 93.0098 145.855 94.6335L145.875 102.312C145.879 103.936 147.195 105.249 148.814 105.245L162.523 105.209C164.142 105.205 165.451 103.885 165.447 102.261L165.427 94.5821C165.423 92.9584 164.107 91.6456 162.488 91.6498Z" fill="#4285F4"/>
<path d="M145.184 117.62L144.388 118.096C144.36 118.116 144.326 118.129 144.291 118.131C144.256 118.131 144.221 118.122 144.19 118.105C144.16 118.088 144.134 118.063 144.116 118.033C144.103 118.011 144.094 117.986 144.091 117.96C144.087 117.934 144.089 117.908 144.097 117.883C144.104 117.858 144.116 117.835 144.133 117.815C144.149 117.795 144.17 117.779 144.193 117.767L145.282 117.067C145.328 117.044 145.381 117.039 145.431 117.051C145.481 117.064 145.524 117.095 145.554 117.137C145.567 117.185 145.567 117.236 145.554 117.284V122.513C145.555 122.539 145.551 122.565 145.541 122.589C145.532 122.613 145.517 122.635 145.499 122.654C145.481 122.672 145.459 122.686 145.434 122.696C145.41 122.705 145.384 122.71 145.359 122.709C145.307 122.709 145.257 122.688 145.22 122.651C145.184 122.615 145.163 122.565 145.163 122.513L145.184 117.62Z" fill="#F8F8F8"/>
<path d="M146.992 122.387L149.637 119.979C149.788 119.84 149.909 119.671 149.992 119.483C150.075 119.295 150.118 119.092 150.119 118.887C150.117 118.526 149.98 118.179 149.735 117.914C149.605 117.769 149.447 117.651 149.271 117.567C149.095 117.483 148.904 117.435 148.71 117.425C148.515 117.416 148.321 117.444 148.137 117.51C147.954 117.576 147.785 117.678 147.641 117.809L147.362 118.068C147.344 118.086 147.323 118.101 147.3 118.111C147.276 118.121 147.251 118.126 147.226 118.126C147.2 118.126 147.175 118.121 147.152 118.111C147.128 118.101 147.107 118.086 147.09 118.068C147.07 118.05 147.055 118.029 147.044 118.004C147.033 117.98 147.028 117.954 147.028 117.928C147.028 117.901 147.033 117.875 147.044 117.851C147.055 117.827 147.07 117.806 147.09 117.788L147.362 117.529C147.707 117.218 148.154 117.046 148.618 117.046C148.875 117.043 149.129 117.095 149.364 117.199C149.599 117.303 149.809 117.456 149.979 117.648C150.295 117.986 150.472 118.431 150.475 118.894C150.476 119.157 150.423 119.417 150.318 119.658C150.214 119.899 150.06 120.116 149.868 120.294L147.606 122.359H150.286C150.339 122.361 150.389 122.383 150.425 122.421C150.462 122.459 150.482 122.509 150.482 122.562C150.482 122.614 150.461 122.664 150.425 122.7C150.388 122.737 150.338 122.758 150.286 122.758H147.124H147.09C147.063 122.759 147.036 122.754 147.012 122.743C146.988 122.732 146.967 122.716 146.95 122.695C146.93 122.673 146.915 122.647 146.907 122.619C146.898 122.59 146.895 122.56 146.899 122.531C146.903 122.502 146.914 122.474 146.93 122.449C146.946 122.424 146.967 122.403 146.992 122.387Z" fill="#F8F8F8"/>
<path d="M155.193 117.375L153.735 118.894C154.074 118.964 154.389 119.125 154.644 119.359C154.9 119.594 155.088 119.894 155.187 120.227C155.287 120.56 155.295 120.914 155.21 121.251C155.125 121.588 154.95 121.896 154.705 122.142C154.527 122.324 154.316 122.468 154.082 122.566C153.848 122.665 153.597 122.716 153.344 122.716C153.091 122.718 152.842 122.668 152.609 122.571C152.376 122.474 152.165 122.33 151.99 122.149C151.952 122.112 151.932 122.061 151.932 122.009C151.932 121.956 151.952 121.906 151.99 121.869C152.027 121.832 152.077 121.811 152.129 121.811C152.181 121.811 152.232 121.832 152.269 121.869C152.558 122.146 152.943 122.302 153.344 122.303C153.544 122.304 153.742 122.265 153.927 122.189C154.112 122.112 154.28 122 154.422 121.858C154.563 121.716 154.675 121.547 154.751 121.362C154.827 121.176 154.866 120.977 154.865 120.777C154.866 120.577 154.827 120.38 154.751 120.196C154.674 120.012 154.561 119.845 154.419 119.706C154.279 119.562 154.112 119.449 153.927 119.373C153.742 119.298 153.543 119.261 153.344 119.265C153.312 119.263 153.282 119.255 153.254 119.24C153.226 119.226 153.202 119.206 153.183 119.181C153.163 119.162 153.147 119.139 153.137 119.114C153.126 119.089 153.12 119.061 153.12 119.034C153.12 119.006 153.126 118.979 153.137 118.954C153.147 118.929 153.163 118.906 153.183 118.887L154.579 117.431H152.408C152.381 117.432 152.355 117.427 152.33 117.417C152.305 117.408 152.282 117.393 152.263 117.374C152.244 117.355 152.229 117.332 152.219 117.307C152.209 117.282 152.205 117.255 152.206 117.228C152.205 117.201 152.209 117.174 152.219 117.149C152.229 117.124 152.244 117.101 152.263 117.082C152.282 117.063 152.305 117.048 152.33 117.038C152.355 117.028 152.381 117.024 152.408 117.025H155.054C155.081 117.024 155.108 117.028 155.133 117.038C155.159 117.048 155.182 117.063 155.201 117.082C155.221 117.101 155.236 117.123 155.247 117.149C155.258 117.174 155.263 117.201 155.263 117.228C155.274 117.257 155.274 117.29 155.263 117.319C155.256 117.333 155.247 117.345 155.235 117.355C155.222 117.364 155.208 117.371 155.193 117.375Z" fill="#F8F8F8"/>
<path d="M159.975 121.533H156.876C156.83 121.536 156.785 121.521 156.75 121.491C156.73 121.473 156.715 121.452 156.704 121.427C156.694 121.403 156.688 121.377 156.688 121.351C156.688 121.324 156.694 121.298 156.704 121.274C156.715 121.25 156.73 121.229 156.75 121.211L160.024 117.109C160.041 117.089 160.061 117.074 160.085 117.063C160.108 117.053 160.134 117.047 160.16 117.047C160.185 117.047 160.211 117.053 160.234 117.063C160.258 117.074 160.279 117.089 160.296 117.109C160.331 117.109 160.345 117.172 160.366 117.207V121.141H160.749C160.801 121.141 160.851 121.161 160.888 121.198C160.924 121.235 160.945 121.285 160.945 121.337C160.945 121.389 160.924 121.439 160.888 121.475C160.851 121.512 160.801 121.533 160.749 121.533H160.366V122.513C160.357 122.559 160.332 122.601 160.296 122.632C160.26 122.662 160.214 122.678 160.167 122.678C160.119 122.678 160.074 122.662 160.037 122.632C160.001 122.601 159.976 122.559 159.968 122.513L159.975 121.533ZM159.975 121.141V117.802L157.301 121.148L159.975 121.141Z" fill="#F8F8F8"/>
<path d="M167.087 122.121C167.068 122.102 167.052 122.08 167.041 122.056C167.03 122.031 167.025 122.004 167.025 121.977C167.025 121.95 167.03 121.924 167.041 121.899C167.052 121.874 167.068 121.852 167.087 121.834C167.127 121.797 167.179 121.776 167.234 121.776C167.288 121.776 167.34 121.797 167.38 121.834C167.52 121.976 167.686 122.088 167.87 122.165C168.053 122.242 168.25 122.281 168.448 122.281C168.647 122.281 168.844 122.242 169.027 122.165C169.21 122.088 169.377 121.976 169.516 121.834C169.658 121.694 169.771 121.528 169.848 121.344C169.925 121.16 169.964 120.962 169.963 120.763C169.965 120.562 169.926 120.363 169.851 120.176C169.776 119.99 169.664 119.821 169.523 119.678C169.235 119.398 168.849 119.242 168.448 119.244C168.248 119.243 168.05 119.282 167.866 119.359C167.681 119.435 167.514 119.549 167.373 119.692C167.355 119.712 167.333 119.727 167.308 119.738C167.284 119.749 167.257 119.754 167.23 119.754C167.203 119.754 167.177 119.749 167.152 119.738C167.128 119.727 167.106 119.712 167.087 119.692C167.064 119.678 167.046 119.655 167.038 119.629C167.035 119.606 167.035 119.582 167.038 119.559C167.04 119.545 167.04 119.531 167.038 119.517L167.311 117.228C167.308 117.199 167.314 117.169 167.328 117.143C167.341 117.117 167.362 117.095 167.387 117.081C167.405 117.064 167.426 117.051 167.449 117.043C167.471 117.034 167.496 117.031 167.52 117.032H170.158C170.212 117.032 170.264 117.053 170.302 117.091C170.34 117.129 170.361 117.181 170.361 117.235C170.361 117.289 170.34 117.34 170.302 117.378C170.264 117.416 170.212 117.438 170.158 117.438H167.681L167.485 119.132C167.776 118.957 168.109 118.865 168.448 118.866C168.957 118.866 169.446 119.069 169.806 119.43C170.166 119.791 170.368 120.28 170.368 120.791C170.375 121.05 170.329 121.308 170.233 121.549C170.137 121.789 169.993 122.008 169.809 122.191C169.444 122.546 168.957 122.749 168.448 122.758C168.19 122.748 167.937 122.687 167.703 122.578C167.47 122.468 167.26 122.313 167.087 122.121Z" fill="#F8F8F8"/>
<path d="M172.483 118.222C172.672 117.855 172.955 117.546 173.304 117.327C173.653 117.107 174.054 116.986 174.465 116.976C174.516 116.976 174.566 116.995 174.603 117.03C174.641 117.065 174.664 117.113 174.668 117.165C174.668 117.218 174.647 117.27 174.611 117.309C174.575 117.348 174.525 117.371 174.472 117.375C174.131 117.386 173.798 117.487 173.509 117.669C173.219 117.851 172.983 118.107 172.825 118.411C172.63 118.767 172.493 119.152 172.42 119.552C172.708 119.225 173.101 119.009 173.531 118.941C173.961 118.873 174.401 118.957 174.775 119.18C175.15 119.402 175.435 119.748 175.582 120.159C175.73 120.57 175.729 121.019 175.582 121.43C175.434 121.84 175.149 122.186 174.774 122.409C174.4 122.631 173.96 122.715 173.53 122.647C173.1 122.579 172.707 122.362 172.419 122.035C172.131 121.708 171.966 121.29 171.952 120.854C171.945 120.73 171.945 120.606 171.952 120.483C171.935 119.696 172.118 118.918 172.483 118.222ZM172.35 120.819C172.343 120.856 172.343 120.894 172.35 120.931C172.357 120.949 172.357 120.969 172.35 120.987C172.376 121.382 172.553 121.752 172.846 122.019C173.138 122.285 173.523 122.427 173.918 122.414C174.312 122.401 174.687 122.235 174.962 121.95C175.237 121.666 175.39 121.285 175.39 120.889C175.39 120.493 175.237 120.112 174.962 119.827C174.687 119.543 174.312 119.376 173.918 119.364C173.523 119.351 173.138 119.493 172.846 119.759C172.553 120.025 172.376 120.395 172.35 120.791V120.819Z" fill="#F8F8F8"/>
<path d="M177.781 122.38L179.875 117.382H177.131C177.08 117.382 177.03 117.361 176.993 117.324C176.957 117.288 176.936 117.238 176.936 117.186C176.936 117.134 176.957 117.084 176.993 117.047C177.03 117.01 177.08 116.99 177.131 116.99H180.133C180.172 116.979 180.213 116.979 180.252 116.99C180.276 117.001 180.298 117.018 180.316 117.038C180.334 117.059 180.348 117.083 180.356 117.109C180.356 117.109 180.356 117.151 180.356 117.172C180.355 117.212 180.343 117.251 180.321 117.284L178.137 122.527C178.121 122.56 178.096 122.589 178.065 122.61C178.035 122.631 177.999 122.643 177.962 122.646C177.935 122.653 177.906 122.653 177.878 122.646C177.832 122.622 177.796 122.581 177.778 122.532C177.76 122.483 177.761 122.428 177.781 122.38Z" fill="#F8F8F8"/>
<path d="M183.372 116.948C183.611 116.957 183.842 117.04 184.034 117.184C184.226 117.328 184.369 117.528 184.445 117.756C184.52 117.984 184.525 118.23 184.458 118.461C184.391 118.691 184.256 118.896 184.07 119.048C184.407 119.187 184.696 119.424 184.9 119.728C185.104 120.032 185.213 120.39 185.214 120.756C185.186 121.225 184.979 121.666 184.637 121.988C184.296 122.311 183.844 122.49 183.375 122.49C182.906 122.49 182.455 122.311 182.113 121.988C181.771 121.666 181.565 121.225 181.536 120.756C181.536 120.391 181.643 120.035 181.845 119.731C182.046 119.427 182.332 119.19 182.667 119.048C182.519 118.936 182.4 118.791 182.317 118.624C182.235 118.458 182.192 118.275 182.192 118.089C182.201 117.782 182.33 117.491 182.55 117.277C182.771 117.064 183.065 116.946 183.372 116.948ZM183.372 122.247C183.562 122.248 183.751 122.211 183.927 122.138C184.103 122.065 184.263 121.958 184.398 121.822C184.532 121.687 184.639 121.526 184.71 121.349C184.782 121.172 184.818 120.982 184.816 120.791C184.816 120.503 184.731 120.221 184.571 119.981C184.411 119.742 184.184 119.555 183.919 119.445C183.653 119.335 183.361 119.307 183.079 119.363C182.797 119.42 182.538 119.559 182.336 119.764C182.133 119.968 181.995 120.228 181.94 120.511C181.885 120.794 181.914 121.087 182.025 121.353C182.136 121.619 182.323 121.846 182.563 122.005C182.803 122.164 183.084 122.248 183.372 122.247ZM183.372 118.929C183.476 118.928 183.579 118.906 183.676 118.865C183.772 118.824 183.859 118.765 183.932 118.69C184.006 118.615 184.063 118.527 184.102 118.43C184.142 118.333 184.161 118.229 184.16 118.124C184.16 117.914 184.077 117.713 183.929 117.565C183.781 117.416 183.581 117.333 183.372 117.333C183.162 117.333 182.962 117.416 182.814 117.565C182.666 117.713 182.583 117.914 182.583 118.124C182.582 118.229 182.602 118.334 182.641 118.431C182.681 118.529 182.739 118.618 182.813 118.693C182.887 118.767 182.975 118.827 183.072 118.867C183.169 118.908 183.274 118.929 183.379 118.929H183.372Z" fill="#F8F8F8"/>
<path d="M193.465 116.92C193.924 116.917 194.368 117.084 194.712 117.388C195.055 117.693 195.275 118.115 195.328 118.572C195.33 118.586 195.33 118.6 195.328 118.614C195.328 118.768 195.328 118.929 195.328 119.104C195.347 119.894 195.162 120.675 194.791 121.372C194.599 121.736 194.315 122.043 193.967 122.262C193.619 122.481 193.219 122.604 192.809 122.618C192.783 122.619 192.757 122.615 192.733 122.606C192.709 122.597 192.687 122.583 192.668 122.565C192.649 122.548 192.634 122.527 192.624 122.503C192.613 122.48 192.607 122.455 192.606 122.429C192.605 122.402 192.61 122.376 192.619 122.351C192.628 122.326 192.642 122.303 192.66 122.283C192.679 122.264 192.7 122.248 192.725 122.237C192.749 122.226 192.775 122.22 192.802 122.219C193.143 122.207 193.475 122.105 193.764 121.923C194.053 121.741 194.289 121.486 194.449 121.183C194.649 120.829 194.786 120.443 194.854 120.042C194.646 120.28 194.383 120.461 194.087 120.57C193.792 120.679 193.474 120.712 193.162 120.665C192.851 120.618 192.556 120.494 192.305 120.303C192.054 120.112 191.855 119.861 191.727 119.573C191.598 119.285 191.543 118.969 191.568 118.654C191.593 118.34 191.696 118.036 191.869 117.772C192.041 117.508 192.277 117.291 192.555 117.142C192.832 116.993 193.143 116.917 193.458 116.92H193.465ZM194.951 118.789C194.951 118.495 194.865 118.208 194.702 117.964C194.539 117.72 194.308 117.53 194.038 117.418C193.768 117.305 193.47 117.276 193.183 117.333C192.896 117.391 192.632 117.532 192.425 117.739C192.218 117.947 192.077 118.211 192.02 118.499C191.963 118.787 191.993 119.086 192.105 119.357C192.217 119.628 192.406 119.86 192.65 120.023C192.893 120.186 193.179 120.273 193.472 120.273C193.666 120.274 193.859 120.236 194.039 120.162C194.219 120.088 194.382 119.978 194.52 119.84C194.658 119.702 194.767 119.538 194.841 119.358C194.915 119.177 194.952 118.984 194.951 118.789Z" fill="#F8F8F8"/>
<path d="M196.787 119.762C196.771 119.058 196.96 118.364 197.332 117.767C197.476 117.519 197.679 117.311 197.922 117.161C198.166 117.011 198.442 116.923 198.728 116.906C199.012 116.925 199.287 117.013 199.53 117.162C199.773 117.31 199.976 117.516 200.124 117.76C200.496 118.355 200.69 119.045 200.682 119.748C200.691 120.449 200.502 121.138 200.138 121.736C199.992 121.982 199.789 122.189 199.546 122.339C199.302 122.489 199.026 122.578 198.742 122.597C198.457 122.58 198.181 122.494 197.937 122.345C197.694 122.196 197.491 121.989 197.346 121.743C196.973 121.15 196.779 120.462 196.787 119.762ZM197.185 119.762C197.177 120.385 197.346 120.997 197.674 121.526C197.781 121.726 197.937 121.895 198.128 122.017C198.318 122.14 198.537 122.211 198.763 122.226C198.986 122.205 199.2 122.13 199.389 122.008C199.577 121.887 199.733 121.721 199.844 121.526C200.156 120.996 200.321 120.391 200.321 119.776C200.321 119.16 200.156 118.556 199.844 118.026C199.744 117.822 199.589 117.651 199.397 117.531C199.204 117.411 198.982 117.347 198.756 117.347C198.529 117.347 198.307 117.411 198.115 117.531C197.922 117.651 197.767 117.822 197.667 118.026C197.349 118.546 197.182 119.145 197.185 119.755V119.762Z" fill="#F8F8F8"/>
<path d="M203.341 117.473L202.539 117.949C202.507 117.957 202.473 117.957 202.441 117.949C202.407 117.95 202.373 117.941 202.343 117.924C202.313 117.907 202.289 117.881 202.273 117.851C202.259 117.829 202.249 117.805 202.244 117.779C202.24 117.753 202.241 117.727 202.248 117.702C202.254 117.677 202.266 117.653 202.283 117.633C202.299 117.613 202.32 117.596 202.343 117.585L203.439 116.885C203.485 116.862 203.538 116.857 203.587 116.871C203.636 116.885 203.678 116.918 203.704 116.962C203.721 117.009 203.721 117.061 203.704 117.109V122.338C203.704 122.39 203.684 122.44 203.647 122.476C203.61 122.513 203.561 122.534 203.509 122.534C203.458 122.532 203.409 122.511 203.373 122.474C203.336 122.438 203.315 122.389 203.313 122.338L203.341 117.473Z" fill="#F8F8F8"/>
<path d="M205.135 122.233L207.781 119.825C207.997 119.626 208.148 119.367 208.215 119.081C208.282 118.794 208.261 118.495 208.156 118.22C208.05 117.946 207.865 117.71 207.624 117.543C207.382 117.376 207.097 117.286 206.803 117.284C206.438 117.284 206.085 117.419 205.812 117.662L205.54 117.914C205.522 117.933 205.501 117.949 205.477 117.96C205.453 117.97 205.427 117.976 205.401 117.976C205.374 117.976 205.348 117.97 205.324 117.96C205.3 117.949 205.279 117.933 205.261 117.914C205.242 117.896 205.228 117.874 205.218 117.85C205.207 117.826 205.202 117.8 205.202 117.774C205.202 117.748 205.207 117.722 205.218 117.698C205.228 117.674 205.242 117.652 205.261 117.634L205.54 117.375C205.887 117.067 206.333 116.895 206.797 116.892C207.285 116.895 207.752 117.091 208.098 117.437C208.444 117.782 208.641 118.25 208.646 118.74C208.649 119.002 208.598 119.263 208.494 119.504C208.391 119.745 208.238 119.962 208.046 120.14L205.777 122.24H208.465C208.517 122.243 208.565 122.266 208.602 122.304C208.638 122.341 208.659 122.391 208.66 122.443C208.658 122.494 208.637 122.543 208.601 122.579C208.565 122.616 208.516 122.637 208.465 122.639H205.268C205.241 122.641 205.214 122.637 205.188 122.628C205.163 122.618 205.14 122.603 205.121 122.583C205.096 122.561 205.076 122.533 205.062 122.502C205.049 122.472 205.043 122.438 205.044 122.404C205.046 122.371 205.054 122.338 205.07 122.308C205.086 122.279 205.108 122.253 205.135 122.233Z" fill="#F8F8F8"/>
<path d="M218.209 117.214L216.743 118.733C217.112 118.802 217.45 118.983 217.713 119.251C217.904 119.427 218.058 119.64 218.166 119.877C218.273 120.114 218.331 120.37 218.337 120.63C218.343 120.891 218.296 121.149 218.2 121.391C218.104 121.633 217.96 121.853 217.777 122.037C217.594 122.222 217.375 122.367 217.135 122.465C216.894 122.563 216.636 122.611 216.377 122.606C216.117 122.602 215.861 122.545 215.624 122.438C215.387 122.332 215.174 122.179 214.998 121.988C214.978 121.969 214.963 121.947 214.952 121.923C214.941 121.898 214.936 121.871 214.936 121.844C214.936 121.817 214.941 121.791 214.952 121.766C214.963 121.741 214.978 121.719 214.998 121.701C215.037 121.664 215.088 121.644 215.141 121.644C215.194 121.644 215.245 121.664 215.284 121.701C215.568 121.984 215.952 122.142 216.352 122.142C216.755 122.138 217.14 121.977 217.427 121.694C217.569 121.553 217.682 121.385 217.758 121.2C217.835 121.015 217.874 120.816 217.874 120.616C217.876 120.416 217.837 120.218 217.76 120.034C217.683 119.85 217.57 119.684 217.427 119.545C217.287 119.402 217.12 119.288 216.935 119.212C216.75 119.135 216.552 119.096 216.352 119.097C216.291 119.093 216.233 119.065 216.192 119.02C216.172 119.001 216.156 118.978 216.145 118.953C216.134 118.928 216.129 118.9 216.129 118.873C216.129 118.845 216.134 118.818 216.145 118.793C216.156 118.768 216.172 118.745 216.192 118.726L217.588 117.263H215.417C215.363 117.263 215.312 117.241 215.274 117.203C215.236 117.165 215.214 117.114 215.214 117.06C215.213 117.033 215.218 117.006 215.228 116.981C215.238 116.956 215.252 116.933 215.271 116.914C215.29 116.895 215.313 116.88 215.338 116.87C215.363 116.86 215.39 116.856 215.417 116.857H218.069C218.123 116.857 218.174 116.878 218.212 116.916C218.25 116.954 218.272 117.006 218.272 117.06C218.282 117.089 218.282 117.121 218.272 117.151C218.256 117.177 218.235 117.198 218.209 117.214Z" fill="#F8F8F8"/>
<path d="M222.983 121.365H219.87C219.824 121.368 219.779 121.353 219.744 121.323C219.725 121.306 219.71 121.285 219.699 121.261C219.688 121.238 219.683 121.212 219.683 121.186C219.683 121.161 219.688 121.135 219.699 121.111C219.71 121.088 219.725 121.067 219.744 121.05L223.018 116.941C223.036 116.922 223.058 116.907 223.082 116.897C223.106 116.887 223.132 116.882 223.158 116.882C223.184 116.882 223.209 116.887 223.233 116.897C223.257 116.907 223.279 116.922 223.297 116.941C223.323 116.97 223.344 117.003 223.36 117.039C223.359 117.05 223.359 117.062 223.36 117.074V121.001H223.744C223.796 121.001 223.847 121.021 223.885 121.058C223.922 121.094 223.945 121.144 223.946 121.197C223.946 121.223 223.941 121.249 223.931 121.273C223.921 121.298 223.906 121.32 223.887 121.338C223.868 121.356 223.845 121.371 223.821 121.38C223.796 121.389 223.77 121.394 223.744 121.393H223.36V122.366C223.36 122.392 223.355 122.418 223.345 122.443C223.334 122.467 223.319 122.489 223.3 122.507C223.281 122.525 223.259 122.54 223.235 122.549C223.21 122.558 223.184 122.563 223.158 122.562C223.107 122.562 223.058 122.542 223.022 122.507C222.985 122.472 222.964 122.424 222.962 122.373L222.983 121.365ZM222.983 120.973V117.641L220.31 120.98L222.983 120.973Z" fill="#F8F8F8"/>
<path d="M225.231 121.967C225.212 121.949 225.197 121.927 225.187 121.903C225.177 121.879 225.172 121.853 225.172 121.827C225.172 121.801 225.177 121.775 225.187 121.751C225.197 121.727 225.212 121.705 225.231 121.687C225.25 121.667 225.272 121.651 225.298 121.64C225.323 121.629 225.35 121.624 225.377 121.624C225.405 121.624 225.432 121.629 225.457 121.64C225.482 121.651 225.505 121.667 225.524 121.687C225.813 121.965 226.198 122.121 226.599 122.121C226.984 122.095 227.344 121.923 227.608 121.64C227.871 121.358 228.017 120.985 228.017 120.598C228.017 120.211 227.871 119.839 227.608 119.556C227.344 119.274 226.984 119.102 226.599 119.076C226.193 119.079 225.804 119.243 225.517 119.531C225.499 119.549 225.477 119.564 225.453 119.574C225.429 119.584 225.403 119.59 225.377 119.59C225.351 119.59 225.326 119.584 225.302 119.574C225.278 119.564 225.256 119.549 225.238 119.531C225.214 119.517 225.196 119.494 225.189 119.468C225.181 119.448 225.181 119.425 225.189 119.405C225.189 119.405 225.189 119.405 225.189 119.363L225.461 117.067C225.462 117.037 225.47 117.009 225.485 116.983C225.499 116.957 225.52 116.936 225.545 116.92C225.579 116.889 225.624 116.871 225.67 116.871H228.316C228.37 116.871 228.421 116.892 228.459 116.93C228.497 116.968 228.518 117.02 228.518 117.074C228.519 117.101 228.515 117.128 228.505 117.153C228.495 117.178 228.48 117.201 228.461 117.22C228.442 117.239 228.419 117.254 228.394 117.263C228.369 117.273 228.343 117.278 228.316 117.277H225.845L225.642 118.971C225.937 118.799 226.272 118.708 226.613 118.705C226.864 118.704 227.113 118.752 227.346 118.849C227.578 118.945 227.789 119.086 227.967 119.265C228.322 119.63 228.521 120.12 228.521 120.63C228.521 121.14 228.322 121.63 227.967 121.995C227.604 122.355 227.116 122.558 226.606 122.562C226.348 122.56 226.094 122.507 225.858 122.404C225.622 122.302 225.408 122.153 225.231 121.967Z" fill="#F8F8F8"/>
<path d="M230.626 118.068C230.818 117.702 231.103 117.395 231.453 117.177C231.803 116.959 232.204 116.839 232.616 116.829C232.666 116.827 232.716 116.845 232.753 116.879C232.791 116.913 232.814 116.96 232.818 117.011C232.818 117.065 232.798 117.117 232.762 117.157C232.726 117.197 232.676 117.223 232.623 117.228C232.279 117.238 231.945 117.34 231.654 117.523C231.363 117.707 231.126 117.965 230.968 118.271C230.774 118.627 230.639 119.012 230.57 119.412C230.858 119.087 231.249 118.872 231.677 118.805C232.105 118.738 232.543 118.822 232.916 119.044C233.289 119.265 233.573 119.61 233.719 120.019C233.866 120.428 233.866 120.876 233.719 121.285C233.572 121.693 233.288 122.038 232.915 122.26C232.542 122.481 232.104 122.565 231.676 122.497C231.248 122.43 230.856 122.215 230.569 121.889C230.282 121.564 230.117 121.148 230.103 120.714C230.092 120.588 230.092 120.462 230.103 120.336C230.087 119.548 230.267 118.769 230.626 118.068ZM230.501 120.672C230.497 120.707 230.497 120.742 230.501 120.777C230.505 120.795 230.505 120.814 230.501 120.833C230.526 121.228 230.704 121.598 230.996 121.865C231.289 122.131 231.673 122.273 232.068 122.26C232.463 122.247 232.837 122.081 233.112 121.796C233.387 121.512 233.541 121.131 233.541 120.735C233.541 120.339 233.387 119.958 233.112 119.673C232.837 119.389 232.463 119.222 232.068 119.21C231.673 119.197 231.289 119.339 230.996 119.605C230.704 119.871 230.526 120.241 230.501 120.637V120.672Z" fill="#F8F8F8"/>
<path d="M195.456 132.373L145.954 132.503L145.96 134.946L195.462 134.816L195.456 132.373Z" fill="#37474F"/>
<path d="M180.607 138.305H145.561V140.748H180.607V138.305Z" fill="#37474F"/>
<path d="M213.315 91.5164L188.627 91.5812L188.634 94.0242L213.322 93.9594L213.315 91.5164Z" fill="#37474F"/>
<path d="M231.373 101.947L230.912 101.485C230.822 101.394 230.731 101.31 230.647 101.219C231.24 100.633 231.711 99.9341 232.033 99.1638C232.354 98.3935 232.519 97.5668 232.519 96.7318C232.519 95.8968 232.354 95.0701 232.033 94.2998C231.711 93.5295 231.24 92.831 230.647 92.2448L230.905 91.9928L231.366 91.5308V91.5658C231.541 91.7618 231.722 91.9508 231.89 92.1538C232.23 92.5861 232.52 93.0558 232.755 93.5538C233.037 94.1229 233.239 94.7283 233.355 95.3528C233.411 95.6538 233.439 95.9548 233.474 96.2558C233.474 96.3608 233.474 97.0258 233.474 97.0468C233.474 97.2498 233.474 97.4598 233.432 97.6628C233.367 98.2276 233.233 98.7824 233.034 99.3148C232.896 99.7039 232.72 100.079 232.511 100.435C232.297 100.815 232.047 101.174 231.764 101.506C231.624 101.674 231.471 101.835 231.324 101.996L231.373 101.947Z" fill="white"/>
<path d="M229.188 93.7218L229.886 92.9868C230.378 93.4779 230.768 94.0615 231.035 94.7042C231.301 95.3468 231.438 96.0359 231.438 96.7318C231.438 97.4278 231.301 98.1168 231.035 98.7595C230.768 99.4022 230.378 99.9858 229.886 100.477L229.188 99.7418C229.583 99.3466 229.895 98.8774 230.109 98.3609C230.322 97.8444 230.432 97.2909 230.432 96.7318C230.432 96.1728 230.322 95.6192 230.109 95.1028C229.895 94.5863 229.583 94.117 229.188 93.7218Z" fill="white"/>
<path d="M228.455 99.0068L227.723 98.3068C227.927 98.1063 228.089 97.8667 228.199 97.6021C228.31 97.3376 228.366 97.0536 228.365 96.7668C228.362 96.1885 228.131 95.6346 227.723 95.2268L228.421 94.4918C229.019 95.0876 229.358 95.8965 229.365 96.7421C229.371 97.5878 229.045 98.4018 228.455 99.0068Z" fill="white"/>
<path d="M111.778 105.419C111.08 115.919 111.08 137.451 115.966 143.527C122.318 151.507 139.558 155.854 144.661 157.156C146.88 157.723 151.515 143.156 150.154 141.056C148.793 138.956 131.001 135.211 129.57 134.056C128.139 132.901 122.806 113.392 120.377 104.824C117.264 94.0578 112.378 96.5708 111.778 105.419Z" fill="#D3766A"/>
<path d="M139.049 155.231C145.01 158.171 152.248 162.189 159.723 161.629C160.556 161.586 161.351 161.263 161.978 160.712C165.335 160.523 166.25 158.878 166.25 158.878C169.321 157.737 170.026 155.924 170.026 155.924C170.026 155.924 173.963 155.651 174.214 153.236C174.479 150.534 168.902 151.444 165.531 150.058C157.804 146.894 147.697 140.258 145.561 139.089L139.049 155.231Z" fill="#D3766A"/>
<path d="M155.082 152.452C157.334 153.4 159.648 154.198 162.006 154.839C164.63 155.373 167.289 155.712 169.963 155.854C169.977 155.858 169.989 155.867 169.998 155.879C170.006 155.891 170.011 155.906 170.011 155.92C170.011 155.935 170.006 155.949 169.998 155.961C169.989 155.973 169.977 155.982 169.963 155.987C164.77 156.232 159.608 155.046 155.04 152.557C154.956 152.494 154.956 152.403 155.082 152.452Z" fill="#263238"/>
<path d="M152.499 156.848C154.782 157.59 158.781 158.864 166.25 158.794V158.836C161.568 159.509 156.791 158.859 152.457 156.96C152.325 156.904 152.345 156.771 152.499 156.848Z" fill="#263238"/>
<path d="M151.152 159.242C155.075 160.348 157.692 160.551 161.964 160.698V160.74C157.078 161.083 155.284 160.656 151.096 159.34C150.956 159.326 151.005 159.2 151.152 159.242Z" fill="#263238"/>
<path d="M156.436 145.655C155.591 144.843 156.01 144.395 158.083 144.598C160.156 144.801 168.162 147.398 168.825 144.5C169.488 141.602 158.125 138.151 154.649 138.074C151.173 137.997 145.54 139.089 145.54 139.089C147.613 140.209 152.394 143.408 156.436 145.655Z" fill="#D3766A"/>
<path d="M110.486 121.883L125.521 118.621C125.521 118.621 122.339 107.33 119.84 101.695C117.341 96.0598 112.797 94.0368 111.317 103.34C110.061 111.229 110.486 121.883 110.486 121.883Z" fill="#263238"/>
<path d="M288.462 150.814L284.931 147.244L282.906 145.221C292.176 135.638 297.118 124.221 297.125 110.879C297.132 97.5368 292.197 86.1058 282.865 76.4528C283.528 75.8228 284.212 75.1858 284.875 74.5278L288.4 71.0278C288.425 70.9929 288.446 70.9554 288.462 70.9158H288.546C288.623 71.0068 288.686 71.0978 288.763 71.1818C290.089 72.6798 291.471 74.1428 292.741 75.6898C298.411 82.7334 302.279 91.06 304.007 99.9448C304.426 102.227 304.635 104.551 304.921 106.854C305.019 107.638 305.033 112.741 305.019 112.902C304.907 114.47 304.838 116.045 304.67 117.606C304.179 121.941 303.164 126.2 301.648 130.29C300.56 133.259 299.222 136.13 297.648 138.872C295.995 141.772 294.079 144.514 291.925 147.062C290.836 148.343 289.677 149.575 288.546 150.828L288.462 150.814Z" fill="#4285F4"/>
<path d="M271.724 87.7718C273.595 85.8888 275.424 84.0408 277.308 82.1368C283.59 88.5558 287.59 96.1368 288.791 105.069C290.591 118.404 286.55 129.856 277.392 139.565L271.808 133.902C277.979 127.525 281.315 119.846 281.308 110.844C281.301 101.842 277.93 94.1978 271.724 87.7718Z" fill="#4285F4"/>
<path d="M266.12 128.267L260.536 122.667C262.089 121.119 263.321 119.277 264.163 117.25C265.004 115.222 265.437 113.047 265.437 110.851C265.437 108.655 265.004 106.48 264.163 104.452C263.321 102.424 262.089 100.583 260.536 99.0348L266.12 93.4348C275.403 102.346 276.143 118.397 266.12 128.267Z" fill="#4285F4"/>
</g>
<defs>
<clipPath id="clip0_124_31">
<rect width="349" height="350" fill="white"/>
</clipPath>
</defs>
</svg>
